<?xml version="1.0" encoding="UTF-8" standalone="no"?>
<!-- Created with Inkscape (http://www.inkscape.org/) -->

<svg
   xmlns:dc="http://purl.org/dc/elements/1.1/"
   xmlns:cc="http://creativecommons.org/ns#"
   xmlns:rdf="http://www.w3.org/1999/02/22-rdf-syntax-ns#"
   xmlns:svg="http://www.w3.org/2000/svg"
   xmlns="http://www.w3.org/2000/svg"
   xmlns:xlink="http://www.w3.org/1999/xlink"
   xmlns:sodipodi="http://sodipodi.sourceforge.net/DTD/sodipodi-0.dtd"
   xmlns:inkscape="http://www.inkscape.org/namespaces/inkscape"
   width="512"
   height="512"
   id="svg2"
   version="1.1"
   inkscape:version="0.48.3.1 r9886"
   sodipodi:docname="icon.svg"
   inkscape:export-filename="/home/xavier/project/github-projects/synapse-mobile/design/icon.png"
   inkscape:export-xdpi="90"
   inkscape:export-ydpi="90">
  <defs
     id="defs4">
    <linearGradient
       id="linearGradient3805">
      <stop
         style="stop-color:#b6b6b6;stop-opacity:1;"
         offset="0"
         id="stop3807" />
      <stop
         style="stop-color:#b3b3b3;stop-opacity:0;"
         offset="1"
         id="stop3809" />
    </linearGradient>
    <linearGradient
       id="linearGradient3867">
      <stop
         style="stop-color:#828282;stop-opacity:1;"
         offset="0"
         id="stop3869" />
      <stop
         style="stop-color:#000000;stop-opacity:0;"
         offset="1"
         id="stop3871" />
    </linearGradient>
    <linearGradient
       id="linearGradient3815">
      <stop
         style="stop-color:#ffffff;stop-opacity:1;"
         offset="0"
         id="stop3817" />
      <stop
         id="stop3823"
         offset="0.47945204"
         style="stop-color:#000000;stop-opacity:0.76923078;" />
      <stop
         style="stop-color:#5f5f5f;stop-opacity:1;"
         offset="1"
         id="stop3819" />
    </linearGradient>
    <filter
       inkscape:collect="always"
       id="filter3850">
      <feGaussianBlur
         inkscape:collect="always"
         stdDeviation="1.7111985"
         id="feGaussianBlur3852" />
    </filter>
    <linearGradient
       inkscape:collect="always"
       xlink:href="#linearGradient3815"
       id="linearGradient3873"
       x1="-555.87408"
       y1="852.59845"
       x2="-79.817383"
       y2="852.59845"
       gradientUnits="userSpaceOnUse"
       gradientTransform="matrix(1.0201156,0,0,1.0201156,1117.1224,-1126.4956)" />
    <filter
       inkscape:collect="always"
       id="filter3883">
      <feGaussianBlur
         inkscape:collect="always"
         stdDeviation="7.8796169"
         id="feGaussianBlur3885" />
    </filter>
    <linearGradient
       inkscape:collect="always"
       xlink:href="#linearGradient3815-4"
       id="linearGradient3873-8"
       x1="-555.87408"
       y1="852.59845"
       x2="-79.817383"
       y2="852.59845"
       gradientUnits="userSpaceOnUse"
       gradientTransform="matrix(1.0201156,0,0,1.0201156,1117.1224,-1126.4956)" />
    <linearGradient
       id="linearGradient3815-4">
      <stop
         style="stop-color:#ffffff;stop-opacity:1;"
         offset="0"
         id="stop3817-6" />
      <stop
         id="stop3823-4"
         offset="0.47945204"
         style="stop-color:#000000;stop-opacity:0.76923078;" />
      <stop
         style="stop-color:#5f5f5f;stop-opacity:1;"
         offset="1"
         id="stop3819-7" />
    </linearGradient>
  </defs>
  <sodipodi:namedview
     id="base"
     pagecolor="#ffffff"
     bordercolor="#666666"
     borderopacity="1.0"
     inkscape:pageopacity="0.0"
     inkscape:pageshadow="2"
     inkscape:zoom="0.70710678"
     inkscape:cx="456.54971"
     inkscape:cy="233.84776"
     inkscape:document-units="px"
     inkscape:current-layer="layer1"
     showgrid="false"
     inkscape:window-width="1600"
     inkscape:window-height="799"
     inkscape:window-x="0"
     inkscape:window-y="0"
     inkscape:window-maximized="1" />
  <metadata
     id="metadata7">
    <rdf:RDF>
      <cc:Work
         rdf:about="">
        <dc:format>image/svg+xml</dc:format>
        <dc:type
           rdf:resource="http://purl.org/dc/dcmitype/StillImage" />
        <dc:title />
      </cc:Work>
    </rdf:RDF>
  </metadata>
  <g
     inkscape:label="Layer 1"
     inkscape:groupmode="layer"
     id="layer1"
     transform="translate(0,-540.36218)">
    <rect
       style="fill:#666666;fill-opacity:1;stroke:none;filter:url(#filter3850)"
       id="rect2985"
       width="488.91385"
       height="488.91385"
       x="7.7867432"
       y="548.2309"
       rx="49.014053"
       ry="49.014053"
       transform="matrix(1.0201156,0,0,1.0201156,-0.57095286,-15.750235)"
       inkscape:export-filename="/home/xavier/project/github-project/synapse-mobile/design/icon.png"
       inkscape:export-xdpi="149.97072"
       inkscape:export-ydpi="149.97072" />
    <rect
       style="fill:#000000;fill-opacity:1;stroke:url(#linearGradient3873);stroke-width:15;stroke-miterlimit:4;stroke-dasharray:none"
       id="rect2985-2"
       width="485.63284"
       height="485.63284"
       x="550.06659"
       y="-499.56317"
       rx="50"
       ry="50"
       transform="matrix(0,1,-1,0,0,0)"
       inkscape:export-filename="/home/xavier/project/github-project/synapse-mobile/design/icon.png"
       inkscape:export-xdpi="149.97072"
       inkscape:export-ydpi="149.97072" />
    <g
       style="font-size:439.89486694px;font-style:normal;font-weight:normal;line-height:125%;letter-spacing:0px;word-spacing:0px;fill:#979797;fill-opacity:1;stroke:none;filter:url(#filter3883);font-family:Sans"
       id="text3811"
       transform="matrix(0.87898865,0,0,0.87898865,32.032067,89.108848)"
       inkscape:export-filename="/home/xavier/project/github-project/synapse-mobile/design/icon.png"
       inkscape:export-xdpi="149.97072"
       inkscape:export-ydpi="149.97072">
      <path
         d="m 237.39577,649.33967 c -4.9856,-4.98513 -7.47833,-10.99702 -7.47822,-18.03569 -1.1e-4,-7.03795 2.49262,-13.04984 7.47822,-18.03569 4.98534,-4.98509 10.99723,-7.47783 18.03569,-7.47822 7.03816,3.9e-4 13.05005,2.49313 18.03568,7.47822 4.98531,4.98585 7.47805,10.99774 7.47822,18.03569 -1.7e-4,7.03867 -2.49291,13.05056 -7.47822,18.03569 -4.98563,4.98581 -10.99752,7.47855 -18.03568,7.47821 -7.03846,3.4e-4 -13.05035,-2.4924 -18.03569,-7.47821 m -13.19685,155.72278 c -9.97105,5.86545 -18.32905,11.73071 -25.07401,17.59579 -6.45187,5.86544 -11.43734,11.2908 -14.95642,16.27611 -3.51923,4.69237 -6.30523,10.411 -8.35801,17.1559 -1.75964,6.45193 -2.78606,12.02392 -3.07926,16.71601 -0.29332,4.39907 -0.43995,10.70422 -0.43989,18.91548 -6e-5,16.12956 8.50456,31.37924 25.5139,45.74906 17.30243,14.07668 37.53757,21.11499 60.70549,21.11496 20.82152,3e-5 39.44372,-6.59838 55.86665,-19.79527 16.42252,-13.19678 24.63388,-26.8335 24.63411,-40.91022 -2.3e-4,-12.31695 -3.66601,-22.43452 -10.99737,-30.35275 -7.03853,-7.91797 -14.95663,-11.87702 -23.75432,-11.87716 -9.97114,1.4e-4 -17.30271,2.78614 -21.99475,8.358 -4.69237,5.57213 -7.03848,15.6897 -7.03832,30.35275 l -36.95116,0 c -1.3e-4,-23.7542 6.15839,-42.22977 18.47558,-55.42676 12.61016,-13.48994 28.44636,-20.23498 47.50865,-20.23516 17.88884,1.8e-4 34.31157,7.33175 49.26822,21.99474 14.95617,14.37004 22.43438,33.43213 22.43464,57.18634 -2.6e-4,24.04766 -11.29089,46.33564 -33.87191,66.86402 -22.28821,20.52843 -50.14819,30.79264 -83.58002,30.79264 -34.31191,0 -63.49157,-10.55747 -87.53908,-31.67243 -23.75436,-21.1149 -35.63151,-44.8692 -35.63148,-71.26297 -3e-5,-52.78723 23.46101,-92.67099 70.38318,-119.65141 l 106.45455,-61.58528 -176.83773,0 0,-36.95117 240.62249,0 0,42.66981 -151.76373,87.97897"
         style="fill:#979797;fill-opacity:1"
         id="path3858"
         inkscape:connector-curvature="0" />
    </g>
    <rect
       style="fill:#000000;fill-opacity:1;stroke:none;opacity:0.49382715999999999"
       id="rect2985-2-5"
       width="474.52115"
       height="472.32758"
       x="-1030.5186"
       y="-492.17111"
       rx="41.428555"
       ry="41.428555"
       transform="matrix(0,-1,-1,0,0,0)"
       inkscape:export-filename="/home/xavier/project/github-project/synapse-mobile/design/icon.png"
       inkscape:export-xdpi="149.97072"
       inkscape:export-ydpi="149.97072" />
    <g
       style="font-size:439.89486694px;font-style:normal;font-weight:normal;line-height:125%;letter-spacing:0px;word-spacing:0px;fill:#ffffff;fill-opacity:1;stroke:none;font-family:Sans"
       id="text3811-1"
       transform="matrix(0.87898865,0,0,0.87898865,34.488187,86.360026)"
       inkscape:export-filename="/home/xavier/project/github-project/synapse-mobile/design/icon.png"
       inkscape:export-xdpi="149.97072"
       inkscape:export-ydpi="149.97072">
      <path
         d="m 234.60152,652.46692 c -4.9856,-4.98512 -7.47833,-10.99701 -7.47822,-18.03569 -1.1e-4,-7.03794 2.49262,-13.04983 7.47822,-18.03568 4.98534,-4.98509 10.99723,-7.47783 18.03568,-7.47822 7.03817,3.9e-4 13.05006,2.49313 18.03569,7.47822 4.98531,4.98585 7.47805,10.99774 7.47822,18.03568 -1.7e-4,7.03868 -2.49291,13.05057 -7.47822,18.03569 -4.98563,4.98582 -10.99752,7.47856 -18.03569,7.47822 -7.03845,3.4e-4 -13.05034,-2.4924 -18.03568,-7.47822 m -13.19685,155.72279 c -9.97105,5.86545 -18.32905,11.73071 -25.07401,17.59579 -6.45187,5.86543 -11.43734,11.2908 -14.95642,16.27611 -3.51923,4.69237 -6.30523,10.41099 -8.35801,17.1559 -1.75964,6.45193 -2.78606,12.02392 -3.07926,16.71601 -0.29332,4.39906 -0.43995,10.70422 -0.4399,18.91548 -5e-5,16.12956 8.50457,31.37924 25.51391,45.74906 17.30243,14.07668 37.53757,21.11499 60.70549,21.11496 20.82152,3e-5 39.44372,-6.59838 55.86665,-19.79527 16.42252,-13.19678 24.63388,-26.83351 24.63411,-40.91023 -2.3e-4,-12.31694 -3.66601,-22.43451 -10.99737,-30.35274 -7.03853,-7.91797 -14.95663,-11.87702 -23.75433,-11.87716 -9.97113,1.4e-4 -17.3027,2.78613 -21.99474,8.358 -4.69237,5.57213 -7.03848,15.6897 -7.03832,30.35275 l -36.95117,0 c -1.2e-4,-23.7542 6.1584,-42.22977 18.47559,-55.42676 12.61016,-13.48994 28.44636,-20.23499 47.50864,-20.23516 17.88885,1.7e-4 34.31158,7.33175 49.26823,21.99474 14.95617,14.37004 22.43438,33.43213 22.43464,57.18633 -2.6e-4,24.04766 -11.29089,46.33565 -33.87191,66.86402 -22.28821,20.52844 -50.14819,30.79264 -83.58002,30.79264 -34.31191,0 -63.49158,-10.55746 -87.53908,-31.67243 -23.75436,-21.1149 -35.63151,-44.8692 -35.63148,-71.26296 -3e-5,-52.78723 23.46101,-92.67099 70.38317,-119.65141 l 106.45456,-61.58528 -176.83773,0 0,-36.95117 240.62249,0 0,42.6698 -151.76373,87.97898"
         id="path3855"
         inkscape:connector-curvature="0" />
    </g>
  </g>
</svg>
