<?xml version="1.0" encoding="UTF-8" standalone="no"?>
<!-- Created with Inkscape (http://www.inkscape.org/) -->

<svg
   xmlns:dc="http://purl.org/dc/elements/1.1/"
   xmlns:cc="http://creativecommons.org/ns#"
   xmlns:rdf="http://www.w3.org/1999/02/22-rdf-syntax-ns#"
   xmlns:svg="http://www.w3.org/2000/svg"
   xmlns="http://www.w3.org/2000/svg"
   xmlns:sodipodi="http://sodipodi.sourceforge.net/DTD/sodipodi-0.dtd"
   xmlns:inkscape="http://www.inkscape.org/namespaces/inkscape"
   width="1280"
   height="720"
   id="svg2"
   version="1.1"
   inkscape:version="0.48.3.1 r9886"
   inkscape:export-filename="/home/xavier/project/github-projects/synapse-mobile/synapselite/res/drawable/synapse.png"
   inkscape:export-xdpi="90"
   inkscape:export-ydpi="90"
   sodipodi:docname="logo.svg">
  <defs
     id="defs4">
    <linearGradient
       id="linearGradient2989">
      <stop
         style="stop-color:#ffffff;stop-opacity:1;"
         offset="0"
         id="stop2991" />
      <stop
         style="stop-color:#000000;stop-opacity:0;"
         offset="1"
         id="stop2993" />
    </linearGradient>
  </defs>
  <sodipodi:namedview
     id="base"
     pagecolor="#000000"
     bordercolor="#666666"
     borderopacity="1.0"
     inkscape:pageopacity="1"
     inkscape:pageshadow="2"
     inkscape:zoom="0.7"
     inkscape:cx="520.33565"
     inkscape:cy="311.40919"
     inkscape:document-units="px"
     inkscape:current-layer="layer1"
     showgrid="false"
     inkscape:window-width="1600"
     inkscape:window-height="799"
     inkscape:window-x="0"
     inkscape:window-y="0"
     inkscape:window-maximized="1"
     showguides="true"
     inkscape:guide-bbox="true" />
  <metadata
     id="metadata7">
    <rdf:RDF>
      <cc:Work
         rdf:about="">
        <dc:format>image/svg+xml</dc:format>
        <dc:type
           rdf:resource="http://purl.org/dc/dcmitype/StillImage" />
        <dc:title></dc:title>
      </cc:Work>
    </rdf:RDF>
  </metadata>
  <g
     inkscape:label="Layer 1"
     inkscape:groupmode="layer"
     id="layer1"
     transform="translate(0,-332.36218)">
    <path
       inkscape:connector-curvature="0"
       id="path3057"
       style="font-size:133.40216064px;font-style:normal;font-variant:normal;font-weight:normal;font-stretch:normal;text-align:center;line-height:125%;letter-spacing:0px;word-spacing:0px;text-anchor:middle;fill:#ffffff;fill-opacity:1;stroke:none;font-family:Verdana;-inkscape-font-specification:Verdana"
       d="m 513.63386,636.5484 c -7e-5,3.54457 -0.83529,7.04838 -2.50563,10.51143 -1.62975,3.46307 -3.93166,6.39649 -6.90575,8.80026 -3.25943,2.60748 -7.0688,4.64458 -11.42812,6.11128 -4.3187,1.46672 -9.53366,2.20007 -15.64491,2.20007 -6.55949,0 -12.46707,-0.61113 -17.72274,-1.83339 -5.215,-1.22225 -10.53182,-3.03526 -15.95048,-5.43904 l 0,-15.15601 0.85558,0 c 4.60383,3.82976 9.92065,6.78355 15.95048,8.86138 6.02977,2.07784 11.69289,3.11676 16.98939,3.11675 7.49647,10e-6 13.32255,-1.40558 17.47829,-4.21679 4.19636,-2.81117 6.29457,-6.55944 6.29463,-11.24477 -6e-5,-4.03343 -0.99824,-7.00759 -2.99453,-8.92249 -1.95567,-1.91484 -4.9502,-3.40192 -8.9836,-4.46125 -3.05569,-0.8148 -6.37616,-1.48704 -9.96141,-2.01672 -3.54458,-0.52961 -7.31321,-1.20185 -11.30589,-2.01673 -8.06693,-1.71112 -14.05599,-4.62417 -17.96719,-8.73915 -3.8705,-4.15562 -5.80574,-9.55392 -5.80573,-16.19492 -1e-5,-7.61867 3.2186,-13.85219 9.65584,-18.70056 6.4372,-4.88894 14.60595,-7.33345 24.50628,-7.33354 6.39644,9e-5 12.26328,0.61121 17.60052,1.83338 5.33713,1.22235 10.06319,2.7298 14.1782,4.52236 l 0,14.30042 -0.85558,0 c -3.46314,-2.93335 -8.02623,-5.35748 -13.68929,-7.27244 -5.62245,-1.95553 -11.38743,-2.93334 -17.29496,-2.93341 -6.47801,7e-5 -11.69297,1.34456 -15.64491,4.03345 -3.91125,2.68904 -5.86686,6.1521 -5.86684,10.38919 -2e-5,3.78907 0.97778,6.76323 2.93342,8.92249 1.95558,2.15938 5.39828,3.80943 10.32809,4.95015 2.60744,0.57044 6.31496,1.26305 11.12254,2.07784 4.8075,0.81489 8.88169,1.65009 12.22259,2.50563 6.7631,1.79269 11.85584,4.50203 15.27823,8.12801 3.42224,3.62607 5.13341,8.69844 5.13348,15.21712" />
    <path
       inkscape:connector-curvature="0"
       id="path3059"
       style="font-size:133.40216064px;font-style:normal;font-variant:normal;font-weight:normal;font-stretch:normal;text-align:center;line-height:125%;letter-spacing:0px;word-spacing:0px;text-anchor:middle;fill:#ffffff;fill-opacity:1;stroke:none;font-family:Verdana;-inkscape-font-specification:Verdana"
       d="m 597.48079,571.52426 -32.02316,51.0904 0,39.90673 -12.10036,0 0,-38.62336 -32.1454,-52.37377 13.38373,0 24.87296,40.70119 25.11741,-40.70119 12.89482,0" />
    <path
       inkscape:connector-curvature="0"
       id="path3061"
       style="font-size:133.40216064px;font-style:normal;font-variant:normal;font-weight:normal;font-stretch:normal;text-align:center;line-height:125%;letter-spacing:0px;word-spacing:0px;text-anchor:middle;fill:#ffffff;fill-opacity:1;stroke:none;font-family:Verdana;-inkscape-font-specification:Verdana"
       d="m 679.49433,662.52139 -14.97266,0 -43.14572,-81.40241 0,81.40241 -11.3059,0 0,-90.99713 18.76167,0 39.35672,74.3133 0,-74.3133 11.30589,0 0,90.99713" />
    <path
       inkscape:connector-curvature="0"
       id="path3063"
       style="font-size:133.40216064px;font-style:normal;font-variant:normal;font-weight:normal;font-stretch:normal;text-align:center;line-height:125%;letter-spacing:0px;word-spacing:0px;text-anchor:middle;fill:#ffffff;fill-opacity:1;stroke:none;font-family:Verdana;-inkscape-font-specification:Verdana"
       d="m 775.44162,662.52139 -12.89482,0 -8.92249,-25.36186 -39.35672,0 -8.92248,25.36186 -12.2837,0 33.1232,-90.99713 16.13381,0 33.1232,90.99713 m -25.5452,-35.75106 -15.95046,-44.67354 -16.01159,44.67354 31.96205,0" />
    <path
       inkscape:connector-curvature="0"
       id="path3065"
       style="font-size:133.40216064px;font-style:normal;font-variant:normal;font-weight:normal;font-stretch:normal;text-align:center;line-height:125%;letter-spacing:0px;word-spacing:0px;text-anchor:middle;fill:#ffffff;fill-opacity:1;stroke:none;font-family:Verdana;-inkscape-font-specification:Verdana"
       d="m 848.77712,599.02507 c -7e-5,4.03351 -0.71306,7.78176 -2.13895,11.24478 -1.3853,3.42236 -3.34091,6.39653 -5.86684,8.92248 -3.13719,3.13717 -6.84471,5.5002 -11.12255,7.0891 -4.27796,1.54823 -9.67626,2.32232 -16.19493,2.32229 l -12.10035,0 0,33.91767 -12.10036,0 0,-90.99713 24.68962,0 c 5.45938,8e-5 10.08358,0.46861 13.87262,1.40559 3.78896,0.89641 7.15016,2.32237 10.08364,4.2779 3.463,2.32237 6.1316,5.21505 8.0058,8.67804 1.91479,3.46314 2.87223,7.8429 2.8723,13.13928 m -12.58926,0.30556 c -6e-5,-3.13706 -0.55007,-5.86677 -1.65005,-8.18913 -1.10009,-2.32221 -2.77051,-4.21671 -5.01126,-5.6835 -1.95566,-1.26293 -4.19647,-2.15924 -6.72242,-2.68897 -2.48531,-0.57031 -5.6428,-0.8555 -9.47251,-0.85558 l -11.97812,0 0,36.36218 10.20586,0 c 4.88899,5e-5 8.86132,-0.42774 11.91701,-1.28336 3.0556,-0.89628 5.54085,-2.30188 7.45578,-4.2168 1.91481,-1.95556 3.25929,-4.01302 4.03345,-6.1724 0.81478,-2.15926 1.2222,-4.58341 1.22226,-7.27244" />
    <path
       inkscape:connector-curvature="0"
       id="path3067"
       style="font-size:133.40216064px;font-style:normal;font-variant:normal;font-weight:normal;font-stretch:normal;text-align:center;line-height:125%;letter-spacing:0px;word-spacing:0px;text-anchor:middle;fill:#ffffff;fill-opacity:1;stroke:none;font-family:Verdana;-inkscape-font-specification:Verdana"
       d="m 930.91292,636.5484 c -9e-5,3.54457 -0.83529,7.04838 -2.50563,10.51143 -1.62976,3.46307 -3.93168,6.39649 -6.90577,8.80026 -3.25942,2.60748 -7.06879,4.64458 -11.42812,6.11128 -4.31869,1.46672 -9.53366,2.20007 -15.64491,2.20007 -6.55948,0 -12.46705,-0.61113 -17.72274,-1.83339 -5.21498,-1.22225 -10.5318,-3.03526 -15.95047,-5.43904 l 0,-15.15601 0.85558,0 c 4.60382,3.82976 9.92064,6.78355 15.95047,8.86138 6.02978,2.07784 11.69291,3.11676 16.98939,3.11675 7.49647,10e-6 13.32257,-1.40558 17.4783,-4.21679 4.19636,-2.81117 6.29456,-6.55944 6.29463,-11.24477 -7e-5,-4.03343 -0.99824,-7.00759 -2.99454,-8.92249 -1.95567,-1.91484 -4.9502,-3.40192 -8.98359,-4.46125 -3.0557,-0.8148 -6.37616,-1.48704 -9.96141,-2.01672 -3.54459,-0.52961 -7.31322,-1.20185 -11.30589,-2.01673 -8.06693,-1.71112 -14.05599,-4.62417 -17.9672,-8.73915 -3.87049,-4.15562 -5.80574,-9.55392 -5.80573,-16.19492 -10e-6,-7.61867 3.21861,-13.85219 9.65585,-18.70056 6.4372,-4.88894 14.60595,-7.33345 24.50628,-7.33354 6.39644,9e-5 12.26327,0.61121 17.60052,1.83338 5.33712,1.22235 10.06319,2.7298 14.1782,4.52236 l 0,14.30042 -0.85558,0 c -3.46314,-2.93335 -8.02623,-5.35748 -13.6893,-7.27244 -5.62244,-1.95553 -11.38742,-2.93334 -17.29495,-2.93341 -6.47801,7e-5 -11.69297,1.34456 -15.64491,4.03345 -3.91125,2.68904 -5.86686,6.1521 -5.86685,10.38919 -10e-6,3.78907 0.97779,6.76323 2.93343,8.92249 1.95559,2.15938 5.39827,3.80943 10.32808,4.95015 2.60745,0.57044 6.31496,1.26305 11.12255,2.07784 4.8075,0.81489 8.8817,1.65009 12.22259,2.50563 6.76309,1.79269 11.85583,4.50203 15.27822,8.12801 3.42226,3.62607 5.13341,8.69844 5.1335,15.21712" />
    <path
       inkscape:connector-curvature="0"
       id="path3069"
       style="font-size:133.40216064px;font-style:normal;font-variant:normal;font-weight:normal;font-stretch:normal;text-align:center;line-height:125%;letter-spacing:0px;word-spacing:0px;text-anchor:middle;fill:#ffffff;fill-opacity:1;stroke:none;font-family:Verdana;-inkscape-font-specification:Verdana"
       d="m 1010.2986,662.52139 -59.9518,0 0,-90.99713 59.9518,0 0,10.75587 -47.85144,0 0,24.93407 47.85144,0 0,10.75588 -47.85144,0 0,33.79543 47.85144,0 0,10.75588" />
    <path
       id="path3855"
       style="font-size:439.89486694px;font-style:normal;font-weight:normal;text-align:center;line-height:125%;letter-spacing:0px;word-spacing:0px;text-anchor:middle;fill:#ffffff;fill-opacity:1;stroke:none;font-family:Sans"
       d="m 354.78334,594.67165 c -1.45501,-1.53126 -2.18249,-3.37788 -2.18246,-5.53989 -3e-5,-2.16181 0.72745,-4.00845 2.18246,-5.53993 1.45492,-1.53124 3.20945,-2.29691 5.26356,-2.29703 2.05403,1.2e-4 3.80855,0.76579 5.26357,2.29703 1.45492,1.53148 2.1824,3.37812 2.18245,5.53993 -5e-5,2.16201 -0.72753,4.00863 -2.18245,5.53989 -1.45502,1.53146 -3.20954,2.29713 -5.26357,2.29703 -2.05411,1e-4 -3.80864,-0.76557 -5.26356,-2.29703 m -3.85138,47.83237 c -2.90998,1.80166 -5.3492,3.60326 -7.31765,5.40478 -1.88292,1.80166 -3.3379,3.46814 -4.36489,4.99945 -1.02708,1.44132 -1.84015,3.19787 -2.43923,5.26967 -0.51353,1.98179 -0.81308,3.6933 -0.89866,5.13454 -0.0856,1.35124 -0.12839,3.28794 -0.12839,5.81016 0,4.95441 2.48199,9.63855 7.44604,14.05244 5.04956,4.32384 10.955,6.48576 17.71637,6.48574 6.07659,2e-5 11.51133,-2.02678 16.30421,-6.08039 4.79278,-4.05357 7.18919,-8.24228 7.18927,-12.56613 -8e-5,-3.78332 -1.06989,-6.89106 -3.20949,-9.32325 -2.05414,-2.43211 -4.36497,-3.64818 -6.9325,-3.64824 -2.90999,6e-5 -5.04966,0.85579 -6.41899,2.56728 -1.36942,1.71156 -2.05412,4.81931 -2.05408,9.32326 l -10.78387,0 c -5e-5,-7.29642 1.79727,-12.97145 5.39193,-17.02508 3.68017,-4.14363 8.30182,-6.21545 13.86501,-6.21552 5.2207,7e-5 10.01354,2.25207 14.37851,6.75599 4.36483,4.41396 6.54728,10.26914 6.54736,17.56556 -8e-5,7.38658 -3.29516,14.23263 -9.88522,20.5382 -6.50462,6.30559 -14.63533,9.45838 -24.39214,9.45838 -10.01364,0 -18.52948,-3.24287 -25.54754,-9.72861 -6.9325,-6.48573 -10.39876,-13.7822 -10.39874,-21.88942 -2e-5,-16.2143 6.8469,-28.46514 20.54073,-36.75255 l 31.06786,-18.91677 -51.60859,0 0,-11.35004 70.22364,0 0,13.10661 -44.29095,27.02394"
       inkscape:connector-curvature="0" />
    <rect
       ry="0"
       rx="0"
       y="565.17902"
       x="299.6633"
       height="152.4731"
       width="115.16585"
       id="rect4773"
       style="font-size:133.40216064px;font-style:normal;font-weight:normal;text-align:center;line-height:125%;letter-spacing:0px;word-spacing:0px;text-anchor:middle;fill:none;stroke:#ffffff;stroke-width:8.028759;stroke-linecap:square;stroke-miterlimit:4;stroke-opacity:1;stroke-dasharray:none;font-family:Sans" />
    <g
       style="font-size:39.4744606px;font-style:normal;font-weight:normal;text-align:center;line-height:125%;letter-spacing:0px;word-spacing:0px;text-anchor:middle;fill:#ffffff;fill-opacity:1;stroke:none;font-family:Sans"
       id="text2999"
       transform="translate(75.714285,-17.142857)">
      <path
         d="m 382.1646,722.01683 c -1.1212,0.0241 -3.5203,3.34549 -7.1973,9.96409 -1.24175,2.23033 -1.96509,3.44795 -2.17003,3.6529 -0.20496,0.1929 -0.58471,0.36771 -1.13928,0.52443 -0.54252,0.15673 -0.9946,0.23508 -1.35627,0.23508 -0.80774,0 -1.21161,-1.57327 -1.21161,-4.71983 0,-1.77219 0.37976,-4.97902 1.13928,-9.62051 0.31345,-1.88068 0.47017,-3.2249 0.47017,-4.03265 0,-0.79566 0.35565,-1.19351 1.06695,-1.19353 1.33817,2e-5 2.00726,0.96448 2.00727,2.89339 -10e-6,0.9042 -0.22304,2.67639 -0.66909,5.3166 -0.51841,3.01395 -0.78363,4.84643 -0.79567,5.49743 0.74744,-0.72334 1.84451,-2.30867 3.29121,-4.756 2.04948,-3.3515 3.55644,-5.47331 4.52092,-6.36545 0.9765,-0.90417 1.98316,-1.35626 3.01996,-1.35628 0.78362,2e-5 1.40449,0.52444 1.86263,1.57328 0.47015,1.04887 0.75346,3.55044 0.84993,7.50472 0.0241,0.98859 0.11451,1.72398 0.27125,2.2062 0.1567,0.48224 0.27124,0.72337 0.3436,0.72336 0.56659,10e-6 1.79628,-1.92892 3.68906,-5.78677 1.01267,-2.03741 1.99521,-3.58658 2.94764,-4.64751 0.96443,-1.06089 2.03137,-1.59134 3.20081,-1.59135 0.97649,1e-5 1.68777,0.50634 2.13388,1.51901 0.44602,1.00065 0.7655,2.48955 0.95842,4.46667 0.18081,2.00127 0.45809,3.83375 0.83185,5.49744 0.38575,1.6637 1.08499,2.73064 2.09771,3.20081 0.68713,0.32551 1.03073,0.70526 1.03077,1.13926 -4e-5,0.42196 -0.28938,0.85597 -0.86802,1.30203 -0.57871,0.44607 -1.10917,0.6691 -1.59136,0.6691 -0.9645,0 -1.82648,-0.59074 -2.58596,-1.7722 -0.75955,-1.18147 -1.33221,-3.73728 -1.71795,-7.66748 -0.16881,-1.57929 -0.33157,-2.70047 -0.48826,-3.36356 -0.15676,-0.66305 -0.40391,-0.99458 -0.74143,-0.9946 -0.50637,2e-5 -1.10917,0.48225 -1.80837,1.44669 -0.68721,0.96447 -1.80236,2.92353 -3.34547,5.8772 -1.20561,2.30265 -2.12184,3.83976 -2.74873,4.61132 -0.61486,0.75952 -1.21162,1.13928 -1.79028,1.13927 -0.51842,1e-5 -0.98256,-0.20493 -1.39243,-0.61483 -0.40992,-0.42195 -0.66912,-0.92227 -0.7776,-1.50095 -0.10853,-0.59072 -0.22305,-2.03139 -0.34359,-4.322 -0.18087,-3.80961 -0.51239,-6.02787 -0.99461,-6.65478"
         style="font-variant:normal;font-stretch:normal;fill:#ffffff;font-family:Segoe Print;-inkscape-font-specification:Segoe Print"
         id="path3004"
         inkscape:connector-curvature="0" />
      <path
         d="m 418.74786,729.73855 c -1.68783,2.26649 -3.35755,3.96635 -5.00918,5.09959 -1.65165,1.13325 -3.16465,1.69987 -4.539,1.69987 -0.9283,0 -1.73,-0.39182 -2.40513,-1.17544 -0.67513,-0.78363 -1.01269,-1.79028 -1.01269,-3.01997 0,-3.17066 1.41656,-6.58245 4.24967,-10.23536 2.8331,-3.66494 5.64811,-5.49741 8.44507,-5.49743 1.01267,2e-5 1.76616,0.5787 2.26046,1.73603 0.15671,0.3858 0.40385,0.57869 0.74143,0.57868 0.96444,10e-6 1.44667,0.37374 1.44669,1.12119 -2e-5,0.37374 -0.0603,0.88611 -0.18085,1.5371 -0.65102,3.55648 -0.97653,6.06407 -0.97651,7.52281 -2e-5,2.91751 0.55455,4.66558 1.6637,5.24426 0.53044,0.28935 0.79566,0.64498 0.79568,1.06694 -2e-5,0.37373 -0.25922,0.74746 -0.7776,1.12119 -0.51842,0.38578 -1.01872,0.57868 -1.50094,0.57868 -0.92831,0 -1.69385,-0.63896 -2.29662,-1.91687 -0.60281,-1.27791 -0.9042,-3.09834 -0.90418,-5.46127 m -1.10311,-10.18111 c -1.59138,2e-5 -3.44193,1.49494 -5.55169,4.48476 -2.10975,2.97779 -3.16464,5.44921 -3.16463,7.4143 -10e-6,1.38641 0.4581,2.07962 1.37435,2.07962 1.32613,0 3.16463,-1.33819 5.51552,-4.01457 2.35087,-2.67638 3.5263,-5.13575 3.52631,-7.37813 -10e-6,-1.72397 -0.56663,-2.58596 -1.69986,-2.58598"
         style="font-variant:normal;font-stretch:normal;fill:#ffffff;font-family:Segoe Print;-inkscape-font-specification:Segoe Print"
         id="path3006"
         inkscape:connector-curvature="0" />
      <path
         d="m 431.84043,727.87593 c 0.15672,-0.20494 1.23571,-1.17542 3.23697,-2.91146 1.89275,-1.65163 3.21284,-2.85118 3.96032,-3.59866 2.78486,-2.78487 4.78613,-4.1773 6.00378,-4.17732 0.94032,2e-5 1.4105,0.4521 1.41053,1.35626 -3e-5,1.02477 -0.46418,1.77826 -1.39245,2.26047 -1.2056,0.61486 -2.81504,1.6396 -4.82833,3.07422 -2.01333,1.4226 -3.01999,2.42925 -3.01998,3.01998 -1e-5,0.24111 0.71128,1.1453 2.13387,2.71255 1.42258,1.5552 2.65226,2.70652 3.68907,3.45397 1.03678,0.73541 2.04343,1.10312 3.01997,1.10311 l 0.59677,-0.0181 c 0.42193,-0.0241 0.63291,0.16275 0.63293,0.56059 -2e-5,0.53045 -0.33157,1.06694 -0.99461,1.60944 -0.66308,0.55457 -1.53713,0.83186 -2.62213,0.83186 -0.69925,0 -1.41054,-0.24715 -2.13388,-0.74143 -0.7113,-0.48223 -1.98318,-1.79631 -3.81565,-3.94224 -1.45876,-1.7722 -2.36896,-2.82707 -2.73064,-3.16464 -0.36167,-0.34962 -0.66306,-0.52442 -0.90417,-0.52443 -0.13262,1e-5 -0.55458,0.31345 -1.26585,0.94035 -0.71131,0.62691 -1.10312,1.1031 -1.17544,1.42861 -0.0603,0.32552 -0.0905,1.56725 -0.0905,3.72523 l 0,0.84993 c 0,0.44606 -0.21097,0.84391 -0.63293,1.19352 -0.42195,0.34962 -0.88007,0.52443 -1.37434,0.52443 -0.50636,0 -0.9042,-0.1507 -1.19354,-0.45208 -0.28934,-0.28935 -0.434,-0.59074 -0.434,-0.90419 0,-0.43401 0.16275,-1.45874 0.48826,-3.07422 0.45811,-2.32676 0.88007,-5.44318 1.26586,-9.34926 0.89212,-9.22264 1.5793,-14.43676 2.06154,-15.64236 0.48222,-1.21761 1.1694,-1.82643 2.06153,-1.82646 0.31344,3e-5 0.57264,0.16882 0.7776,0.50635 0.21699,0.33759 0.3255,0.77159 0.32551,1.30202 -1e-5,0.96449 -0.41594,3.52634 -1.24777,7.68555 -0.83186,4.17132 -1.43465,8.23411 -1.80837,12.18839"
         style="font-variant:normal;font-stretch:normal;fill:#ffffff;font-family:Segoe Print;-inkscape-font-specification:Segoe Print"
         id="path3008"
         inkscape:connector-curvature="0" />
      <path
         d="m 465.72921,730.19064 c -2e-5,1.22969 -1.09107,2.71255 -3.27315,4.44858 -2.17005,1.73603 -4.41242,2.60405 -6.72711,2.60405 -1.94099,0 -3.44194,-0.57264 -4.50284,-1.71795 -1.04885,-1.14529 -1.57328,-2.74269 -1.57327,-4.79217 -1e-5,-3.44794 1.16338,-6.7271 3.49013,-9.83751 2.32677,-3.11037 4.87052,-4.66557 7.63131,-4.66559 0.90418,2e-5 1.63958,0.29539 2.20621,0.88611 0.57866,0.59075 0.868,1.30203 0.86802,2.13387 -2e-5,1.85659 -0.91023,3.63483 -2.73064,5.33467 -1.82044,1.69988 -4.2557,3.3696 -7.3058,5.00918 -0.6269,0.32551 -0.94035,0.74746 -0.94035,1.26585 0,1.00065 0.28934,1.80236 0.86801,2.40513 0.57868,0.60279 1.43464,0.9042 2.56788,0.90419 2.59199,10e-6 5.23823,-1.43463 7.93874,-4.30392 0.39781,-0.39783 0.69922,-0.59675 0.90418,-0.59675 0.38577,0 0.57866,0.30742 0.57868,0.92226 m -12.56814,-2.82104 c 5.11162,-3.03805 7.66745,-5.47934 7.66746,-7.32389 -10e-6,-0.72333 -0.32551,-1.08501 -0.97651,-1.08503 -1.10915,2e-5 -2.36294,0.81379 -3.76141,2.4413 -1.38642,1.62754 -2.36293,3.61675 -2.92954,5.96762"
         style="font-variant:normal;font-stretch:normal;fill:#ffffff;font-family:Segoe Print;-inkscape-font-specification:Segoe Print"
         id="path3010"
         inkscape:connector-curvature="0" />
      <path
         d="m 497.68303,729.93748 c -2.21828,1.92892 -4.17131,3.33342 -5.8591,4.21348 -1.67576,0.86802 -2.9597,1.30203 -3.85182,1.30203 -1.19353,0 -2.10977,-0.49429 -2.74872,-1.48287 -0.6269,-1.00062 -0.94035,-2.164 -0.94034,-3.49013 -10e-6,-1.85659 0.37372,-4.14719 1.12118,-6.87181 0.7595,-2.73664 1.32011,-4.35814 1.68177,-4.86449 0.37373,-0.51839 0.96446,-0.77758 1.7722,-0.7776 0.33756,2e-5 0.61484,0.19893 0.83185,0.59676 0.217,0.39785 0.3255,0.84995 0.32551,1.35627 -10e-6,0.30142 -0.13864,0.69323 -0.41593,1.17544 -0.65101,1.13325 -0.9946,1.76016 -1.03076,1.8807 -0.0241,0.12057 -0.25319,0.84994 -0.68718,2.18812 -0.43402,1.32615 -0.65101,2.57392 -0.65101,3.74332 0,0.4099 0.0964,1.04886 0.28934,1.91686 0.20494,0.86802 0.62086,1.30204 1.24777,1.30204 0.66305,0 1.47682,-0.19892 2.44129,-0.59677 0.97651,-0.40989 2.07358,-1.07296 3.29123,-1.9892 1.21762,-0.91623 2.03741,-1.65766 2.45938,-2.22429 0.42193,-0.56661 0.7173,-1.2116 0.8861,-1.93495 0.18081,-0.72333 0.3074,-2.29059 0.37975,-4.70176 0.0723,-2.41113 0.65703,-3.6167 1.75412,-3.61673 0.65099,3e-5 1.07295,0.17484 1.26586,0.52443 0.19287,0.33758 0.28932,0.98859 0.28934,1.95303 -2e-5,0.7957 -0.0543,1.7903 -0.16275,2.98381 -0.13265,1.50698 -0.21703,2.57995 -0.25318,3.21889 -0.1688,3.31534 -0.6028,6.64876 -1.30202,10.00027 -0.68719,3.33945 -1.69386,6.13035 -3.01997,8.37273 -1.32615,2.25442 -3.1526,3.38163 -5.47936,3.38164 -2.36294,-1e-5 -4.46666,-0.62087 -6.3112,-1.86262 -1.83247,-1.22969 -2.74871,-2.27251 -2.74871,-3.12846 0,-0.39786 0.0905,-0.78966 0.27126,-1.17544 0.19289,-0.38579 0.434,-0.57868 0.72334,-0.57868 0.14467,0 0.30139,0.11453 0.47017,0.34359 1.57931,2.4232 4.06279,3.6348 7.45047,3.63481 1.74809,-1e-5 3.21286,-1.53711 4.39433,-4.61133 1.19351,-3.06216 1.85055,-5.93746 1.97113,-8.6259 0.0241,-0.5184 0.0723,-1.0368 0.14466,-1.55519"
         style="font-variant:normal;font-stretch:normal;fill:#ffffff;font-family:Segoe Print;-inkscape-font-specification:Segoe Print"
         id="path3012"
         inkscape:connector-curvature="0" />
      <path
         d="m 511.51704,737.22519 c -1.65164,0 -3.01394,-0.62691 -4.08691,-1.88071 -1.07296,-1.2538 -1.60944,-2.80296 -1.60944,-4.6475 0,-3.11038 1.04282,-6.17254 3.12847,-9.18649 2.0977,-3.02599 4.6053,-4.53899 7.5228,-4.53901 1.92892,2e-5 3.49013,0.74145 4.68367,2.2243 1.20556,1.48287 1.80836,3.24904 1.80838,5.29851 -2e-5,3.13451 -1.24178,6.03995 -3.72524,8.71633 -2.47144,2.67637 -5.04535,4.01457 -7.72173,4.01457 m -2.51363,-6.99838 c -10e-6,1.21764 0.25316,2.21224 0.75952,2.98381 0.51838,0.77156 1.19954,1.15735 2.04345,1.15735 1.7963,0 3.59864,-0.98255 5.40702,-2.94764 1.80835,-1.97715 2.71253,-4.17129 2.71255,-6.58245 -2e-5,-1.48286 -0.34964,-2.6824 -1.04886,-3.59865 -0.68719,-0.92829 -1.61548,-1.39242 -2.78488,-1.39244 -1.94099,2e-5 -3.61071,1.19353 -5.00918,3.58057 -1.38642,2.37499 -2.07963,4.64147 -2.07962,6.79945"
         style="font-variant:normal;font-stretch:normal;fill:#ffffff;font-family:Segoe Print;-inkscape-font-specification:Segoe Print"
         id="path3014"
         inkscape:connector-curvature="0" />
      <path
         d="m 539.98073,728.45461 c -1.54316,2.59199 -3.12246,4.59928 -4.73792,6.02186 -1.61549,1.42258 -3.11642,2.13387 -4.50284,2.13387 -0.79568,0 -1.60945,-0.46415 -2.44129,-1.39245 -0.81979,-0.92829 -1.22969,-2.35689 -1.22969,-4.28582 0,-1.5793 0.37976,-3.90606 1.13927,-6.98029 0.63896,-2.56786 0.95843,-4.3702 0.95844,-5.40703 0.34961,-0.72331 0.89815,-1.08499 1.64561,-1.085 0.50633,10e-6 0.91021,0.18084 1.2116,0.5425 0.3014,0.34964 0.4521,0.71735 0.4521,1.10311 0,0.84392 -0.29538,2.04347 -0.8861,3.59864 -1.12119,3.02601 -1.68179,5.62402 -1.68178,7.79406 -10e-6,1.97716 0.45811,2.96574 1.37435,2.96573 1.16941,10e-6 2.65829,-0.9946 4.46668,-2.9838 1.80835,-1.9892 3.35751,-4.76203 4.64749,-8.3185 0.50632,-1.42256 0.91622,-2.34483 1.22969,-2.7668 0.32549,-0.43399 0.7595,-0.65099 1.30202,-0.651 0.81978,10e-6 1.22967,0.54251 1.22969,1.62752 -2e-5,0.13263 -0.11455,0.57266 -0.34358,1.32011 -0.72337,2.64023 -1.08504,5.13577 -1.08503,7.48663 -10e-6,2.82106 0.46413,4.64751 1.39245,5.47936 0.48221,0.44606 0.72332,0.80773 0.72334,1.08502 -2e-5,0.33756 -0.24716,0.64498 -0.74143,0.92225 -0.48225,0.2773 -0.92229,0.41593 -1.32011,0.41593 -0.84391,0 -1.52507,-0.62689 -2.04345,-1.88069 -0.51841,-1.2538 -0.77761,-3.10436 -0.77759,-5.55169 l 0,-0.59676 c -2e-5,-0.19289 0.006,-0.3918 0.0181,-0.59676"
         style="font-variant:normal;font-stretch:normal;fill:#ffffff;font-family:Segoe Print;-inkscape-font-specification:Segoe Print"
         id="path3016"
         inkscape:connector-curvature="0" />
      <path
         d="m 553.43497,729.14179 c 0.12055,-0.21699 0.26522,-0.51839 0.43401,-0.90418 0.81978,-1.88069 1.57327,-3.3515 2.26045,-4.41242 0.68718,-1.07294 1.44066,-2.09768 2.26046,-3.07422 0.83184,-0.9765 1.58532,-1.71792 2.26046,-2.22429 0.68717,-0.50632 1.30804,-0.85594 1.86262,-1.04886 0.55455,-0.20491 1.09103,-0.3074 1.60944,-0.30741 1.04883,1e-5 1.9048,0.31949 2.56788,0.95843 0.66305,0.62691 0.99459,1.36232 0.9946,2.2062 -10e-6,0.37375 -0.12057,0.71131 -0.36166,1.01269 -0.22909,0.3014 -0.58473,0.45211 -1.06694,0.45209 -0.50637,2e-5 -0.9705,-0.22301 -1.39244,-0.66909 -0.43403,-0.44606 -0.88612,-0.66909 -1.35628,-0.6691 -1.25381,10e-6 -2.98985,1.51904 -5.20809,4.55709 -2.21827,3.03805 -3.56852,6.38353 -4.05075,10.03642 -0.12055,0.94036 -0.34962,1.56123 -0.68717,1.86262 -0.33756,0.3014 -0.81377,0.45209 -1.42862,0.45209 -0.59073,0 -1.01871,-0.44003 -1.28394,-1.3201 -0.26523,-0.88007 -0.39784,-2.36292 -0.39783,-4.44858 -1e-5,-0.56662 0.0301,-1.81439 0.0905,-3.74332 0.0723,-2.27853 0.217,-4.11704 0.434,-5.51552 0.0361,-0.22904 0.0964,-0.76552 0.18084,-1.60944 0.0843,-0.92828 0.18687,-1.57327 0.30743,-1.93496 0.1326,-0.36165 0.3918,-0.69922 0.77759,-1.01268 0.39783,-0.31343 0.82582,-0.47016 1.28394,-0.47018 0.44606,2e-5 0.77759,0.14469 0.9946,0.43402 0.22905,0.27729 0.34358,0.57869 0.34359,0.90417 -10e-6,0.47019 -0.12057,1.13327 -0.36167,1.98921 -0.2773,0.95241 -0.44005,1.60946 -0.48827,1.97112 -0.0362,0.4099 -0.10247,0.83788 -0.19891,1.28394 -0.12056,0.5184 -0.24113,1.88071 -0.36167,4.08691 l -0.0181,0.6691 0,0.48825"
         style="font-variant:normal;font-stretch:normal;fill:#ffffff;font-family:Segoe Print;-inkscape-font-specification:Segoe Print"
         id="path3018"
         inkscape:connector-curvature="0" />
      <path
         d="m 596.456,728.83436 c -1.61549,2.592 -3.32741,4.59326 -5.13576,6.00378 -1.80838,1.39847 -3.47208,2.09771 -4.9911,2.09771 -1.16941,0 -2.0977,-0.44607 -2.78488,-1.33819 -0.67512,-0.90418 -1.01268,-2.10373 -1.01268,-3.59865 0,-3.0501 1.2357,-6.17857 3.70715,-9.38542 2.48348,-3.20682 5.15985,-4.81024 8.02915,-4.81026 1.25378,2e-5 2.41716,0.53651 3.49013,1.60945 l 2.53172,-11.82672 c 0.18082,-0.80771 0.51235,-1.35022 0.9946,-1.62752 0.49427,-0.27726 0.88006,-0.4159 1.15735,-0.41593 0.84389,3e-5 1.26585,0.74749 1.26586,2.24237 -10e-6,0.26526 -0.27731,1.25383 -0.83184,2.96573 -0.8801,2.65229 -1.71798,5.91337 -2.51363,9.78326 -0.78365,3.85786 -1.17546,6.95619 -1.17544,9.295 -2e-5,2.41116 0.5244,3.61673 1.57327,3.61673 0.67511,0 1.37434,-0.22303 2.09771,-0.66909 0.30137,-0.21701 0.58469,-0.3255 0.84993,-0.32551 0.38577,10e-6 0.57865,0.25317 0.57868,0.75952 -3e-5,0.61484 -0.54254,1.32613 -1.62753,2.13386 -1.07298,0.80774 -2.17609,1.21161 -3.30931,1.21161 -1.98922,0 -2.98382,-1.91686 -2.9838,-5.7506 -2e-5,-0.65101 0.0302,-1.30805 0.0905,-1.97113 m -2.36897,-8.46315 c -1.95304,2e-5 -3.88799,1.32615 -5.80485,3.9784 -1.91688,2.64023 -2.87531,5.08152 -2.87531,7.32389 0,1.50698 0.50031,2.26046 1.50095,2.26045 0.94034,10e-6 2.07961,-0.49427 3.41781,-1.48285 1.35024,-0.98857 2.73665,-2.56184 4.15924,-4.71984 1.42257,-2.17002 2.13386,-3.79756 2.13388,-4.88258 -2e-5,-0.53045 -0.24717,-1.07295 -0.74143,-1.62753 -0.48224,-0.56661 -1.07901,-0.84992 -1.79029,-0.84994"
         style="font-variant:normal;font-stretch:normal;fill:#ffffff;font-family:Segoe Print;-inkscape-font-specification:Segoe Print"
         id="path3020"
         inkscape:connector-curvature="0" />
      <path
         d="m 613.8344,712.10698 c -0.25318,3e-5 -0.44607,-0.27123 -0.57868,-0.81377 -0.0482,-0.16875 -0.11454,-0.35562 -0.19893,-0.56059 -0.32551,-0.7836 -0.48826,-1.46475 -0.48825,-2.04345 -10e-6,-0.4822 0.28331,-0.97046 0.84993,-1.46478 0.57867,-0.50632 1.21763,-0.75948 1.91687,-0.75951 0.34961,3e-5 0.74142,0.13867 1.17544,0.41592 0.434,0.26526 0.651,0.52446 0.651,0.7776 0,0.39786 -0.1507,1.07299 -0.45208,2.02537 -0.28936,0.95243 -0.75952,1.59741 -1.41053,1.93495 -0.63897,0.32553 -1.12723,0.48829 -1.46477,0.48826 m -2.36896,20.19946 c 0,0.91623 0.12658,1.94699 0.37976,3.0923 0.0482,0.217 0.0723,0.39783 0.0723,0.54251 -10e-6,0.217 -0.19893,0.49428 -0.59676,0.83185 -0.39784,0.34961 -0.81979,0.52441 -1.26586,0.52442 -1.16942,-10e-6 -1.75412,-1.07296 -1.75412,-3.21889 0,-2.21825 0.45812,-5.72649 1.37436,-10.52469 0.31345,-1.67574 0.47018,-2.70651 0.47018,-3.09231 0,-0.7595 0.13864,-1.40448 0.41593,-1.93495 0.27727,-0.54249 0.66909,-0.81375 1.17543,-0.81377 0.61484,2e-5 1.09707,0.15072 1.44669,0.4521 0.36168,0.28935 0.5425,0.61486 0.54251,0.97652 -10e-6,0.36168 -0.0844,0.83788 -0.25317,1.4286 -0.90419,3.18274 -1.46478,5.46128 -1.68177,6.83563 -0.21702,1.37437 -0.32551,3.00792 -0.32551,4.90068"
         style="font-variant:normal;font-stretch:normal;fill:#ffffff;font-family:Segoe Print;-inkscape-font-specification:Segoe Print"
         id="path3022"
         inkscape:connector-curvature="0" />
      <path
         d="m 631.50214,729.77473 c -0.14469,-0.10851 -0.54856,0.22906 -1.21161,1.01268 -1.09709,1.28996 -2.50159,2.43526 -4.21349,3.43589 -1.69988,1.00064 -3.27918,1.50094 -4.73793,1.50094 -1.08502,0 -1.93496,-0.33755 -2.54979,-1.01268 -0.61485,-0.68718 -0.92228,-1.63356 -0.92228,-2.83914 0,-1.86863 0.70527,-3.94825 2.11579,-6.23887 1.41052,-2.30263 3.38164,-4.30992 5.91337,-6.02185 2.54375,-1.71191 4.76805,-2.56786 6.67287,-2.56788 1.00061,2e-5 1.88069,0.28936 2.64021,0.86802 0.18082,0.14468 0.33754,0.26524 0.47018,0.36167 0.21699,0.15674 0.42193,0.47622 0.61484,0.95843 0.19287,0.47019 0.28932,0.84995 0.28934,1.13927 -2e-5,0.18086 -0.0664,0.45814 -0.19892,0.83185 -0.73542,2.00128 -1.23573,3.65894 -1.50094,4.973 -0.26525,1.3141 -0.55459,3.52632 -0.86802,6.63671 -0.28936,2.79695 -0.60281,4.9489 -0.94035,6.45587 -0.33758,1.50697 -0.9464,2.96572 -1.82645,4.37624 -0.88009,1.41052 -1.93496,2.4654 -3.16464,3.16465 -1.22969,0.71128 -2.49556,1.06692 -3.79756,1.06693 -2.25445,-10e-6 -4.47873,-0.7776 -6.67287,-2.33279 -2.19416,-1.5552 -3.29124,-2.80298 -3.29124,-3.74331 0,-0.59074 0.22304,-0.88611 0.6691,-0.88611 0.21701,0 0.86199,0.35565 1.93495,1.06694 2.83311,1.89274 5.3829,2.83913 7.64939,2.83914 1.97713,-10e-6 3.47808,-1.0549 4.50283,-3.16465 1.03679,-2.10977 1.74205,-5.26235 2.11579,-9.45775 0.0843,-0.95241 0.18685,-1.76014 0.30743,-2.4232 m -0.0361,-9.92794 c -1.02475,2e-5 -2.30869,0.53047 -3.85182,1.59137 -1.53109,1.06091 -3.01998,2.6161 -4.46666,4.66557 -1.4467,2.04949 -2.17006,3.76744 -2.17005,5.15385 -1e-5,0.47017 0.14467,0.8439 0.43402,1.12118 0.30138,0.26523 0.63292,0.39785 0.9946,0.39785 1.07295,0 2.47142,-0.55457 4.19541,-1.6637 1.73602,-1.10912 3.2249,-2.64623 4.46666,-4.61133 1.25379,-1.97714 1.88068,-3.52631 1.8807,-4.64751 -2e-5,-1.33817 -0.49431,-2.00726 -1.48286,-2.00728"
         style="font-variant:normal;font-stretch:normal;fill:#ffffff;font-family:Segoe Print;-inkscape-font-specification:Segoe Print"
         id="path3024"
         inkscape:connector-curvature="0" />
      <path
         d="m 645.80633,712.10698 c -0.25319,3e-5 -0.44607,-0.27123 -0.57868,-0.81377 -0.0482,-0.16875 -0.11454,-0.35562 -0.19892,-0.56059 -0.32551,-0.7836 -0.48828,-1.46475 -0.48827,-2.04345 -1e-5,-0.4822 0.28331,-0.97046 0.84994,-1.46478 0.57867,-0.50632 1.21763,-0.75948 1.91687,-0.75951 0.3496,3e-5 0.74142,0.13867 1.17543,0.41592 0.434,0.26526 0.65101,0.52446 0.65101,0.7776 0,0.39786 -0.15069,1.07299 -0.45209,2.02537 -0.28934,0.95243 -0.75951,1.59741 -1.41052,1.93495 -0.63896,0.32553 -1.12723,0.48829 -1.46477,0.48826 m -2.36896,20.19946 c -10e-6,0.91623 0.12657,1.94699 0.37976,3.0923 0.0482,0.217 0.0723,0.39783 0.0723,0.54251 0,0.217 -0.19891,0.49428 -0.59676,0.83185 -0.39784,0.34961 -0.81979,0.52441 -1.26585,0.52442 -1.16941,-10e-6 -1.75412,-1.07296 -1.75411,-3.21889 -10e-6,-2.21825 0.4581,-5.72649 1.37435,-10.52469 0.31345,-1.67574 0.47017,-2.70651 0.47018,-3.09231 -1e-5,-0.7595 0.13864,-1.40448 0.41593,-1.93495 0.27727,-0.54249 0.66908,-0.81375 1.17543,-0.81377 0.61483,2e-5 1.09706,0.15072 1.44669,0.4521 0.36167,0.28935 0.5425,0.61486 0.54251,0.97652 -10e-6,0.36168 -0.0844,0.83788 -0.25318,1.4286 -0.90418,3.18274 -1.46477,5.46128 -1.68177,6.83563 -0.21701,1.37437 -0.32551,3.00792 -0.3255,4.90068"
         style="font-variant:normal;font-stretch:normal;fill:#ffffff;font-family:Segoe Print;-inkscape-font-specification:Segoe Print"
         id="path3026"
         inkscape:connector-curvature="0" />
      <path
         d="m 658.04896,718.07459 c 1.24173,-0.0964 2.41114,-0.21096 3.50823,-0.34359 1.08501,-0.12054 1.98919,-0.18082 2.71256,-0.18084 0.91621,2e-5 1.49489,0.0844 1.73602,0.25317 0.2411,0.1688 0.36166,0.46417 0.36168,0.8861 -2e-5,0.97653 -0.68117,1.50699 -2.04346,1.59137 -1.7481,0.10852 -3.35754,0.25922 -4.82834,0.45209 -1.47081,0.19291 -2.26649,0.35566 -2.38704,0.48826 -0.1085,0.12058 -0.47018,1.5552 -1.08503,4.30391 -0.61484,2.73666 -0.92226,4.51489 -0.92225,5.33467 -10e-6,1.32615 0.17479,2.21224 0.52442,2.65831 0.34961,0.43401 0.87403,0.65102 1.57328,0.65101 1.03678,10e-6 2.47745,-0.7776 4.32199,-2.3328 0.71129,-0.63895 1.25982,-0.95843 1.64562,-0.95843 0.51838,0 0.77758,0.27729 0.7776,0.83185 -2e-5,0.86802 -0.8379,1.99523 -2.51363,3.38164 -1.66372,1.37436 -3.36961,2.06155 -5.11768,2.06155 -2.91751,0 -4.37625,-1.71796 -4.37624,-5.15385 -10e-6,-1.24174 0.30139,-3.16464 0.90418,-5.76869 0.59073,-2.59198 0.88609,-4.14717 0.8861,-4.66558 -1e-5,-0.18082 -0.14468,-0.27124 -0.43402,-0.27126 l -1.88069,0.16275 c -1.54315,2e-5 -2.31471,-0.61483 -2.31471,-1.84453 0,-0.69922 0.35563,-1.04883 1.06694,-1.04885 l 3.72523,0 c 0.25317,2e-5 0.4762,-0.11451 0.6691,-0.3436 0.19289,-0.22903 0.4762,-0.99457 0.84993,-2.29662 0.37372,-1.31405 0.70525,-2.61006 0.99459,-3.88799 0.28934,-1.26582 0.85595,-1.89875 1.69987,-1.89878 0.51839,3e-5 0.92226,0.18086 1.21161,0.54251 0.28932,0.3617 0.434,0.69926 0.43401,1.01269 -10e-6,0.1688 -0.21702,1.03079 -0.65102,2.58596 l -1.04885,3.79757"
         style="font-variant:normal;font-stretch:normal;fill:#ffffff;font-family:Segoe Print;-inkscape-font-specification:Segoe Print"
         id="path3028"
         inkscape:connector-curvature="0" />
      <path
         d="m 680.23759,729.73855 c -1.68782,2.26649 -3.35754,3.96635 -5.00917,5.09959 -1.65165,1.13325 -3.16464,1.69987 -4.539,1.69987 -0.9283,0 -1.73001,-0.39182 -2.40512,-1.17544 -0.67513,-0.78363 -1.01269,-1.79028 -1.01269,-3.01997 0,-3.17066 1.41654,-6.58245 4.24966,-10.23536 2.83309,-3.66494 5.64812,-5.49741 8.44506,-5.49743 1.01268,2e-5 1.76616,0.5787 2.26047,1.73603 0.15671,0.3858 0.40384,0.57869 0.74143,0.57868 0.96445,10e-6 1.44668,0.37374 1.4467,1.12119 -2e-5,0.37374 -0.0603,0.88611 -0.18085,1.5371 -0.65103,3.55648 -0.97653,6.06407 -0.97651,7.52281 -2e-5,2.91751 0.55454,4.66558 1.6637,5.24426 0.53042,0.28935 0.79566,0.64498 0.79567,1.06694 -10e-6,0.37373 -0.25922,0.74746 -0.7776,1.12119 -0.51841,0.38578 -1.01873,0.57868 -1.50094,0.57868 -0.92831,0 -1.69384,-0.63896 -2.29662,-1.91687 -0.60281,-1.27791 -0.9042,-3.09834 -0.90419,-5.46127 m -1.1031,-10.18111 c -1.59137,2e-5 -3.44194,1.49494 -5.55168,4.48476 -2.10978,2.97779 -3.16465,5.44921 -3.16464,7.4143 -1e-5,1.38641 0.45811,2.07962 1.37435,2.07962 1.32613,0 3.16464,-1.33819 5.51552,-4.01457 2.35087,-2.67638 3.5263,-5.13575 3.52632,-7.37813 -2e-5,-1.72397 -0.56664,-2.58596 -1.69987,-2.58598"
         style="font-variant:normal;font-stretch:normal;fill:#ffffff;font-family:Segoe Print;-inkscape-font-specification:Segoe Print"
         id="path3030"
         inkscape:connector-curvature="0" />
      <path
         d="m 696.15122,705.70536 c 0.868,3e-5 1.30201,0.5546 1.30202,1.6637 -1e-5,0.98861 -0.52443,3.33948 -1.57328,7.05263 -0.66307,2.33884 -1.17544,4.91877 -1.53712,7.7398 -0.36167,2.82107 -0.5425,5.0333 -0.5425,6.63671 0,1.98921 0.12658,3.96635 0.37975,5.93144 0.0482,0.37373 0.0723,0.64498 0.0723,0.81376 -10e-6,0.60279 -0.20496,1.12118 -0.61486,1.5552 -0.40989,0.43401 -0.84391,0.65101 -1.30201,0.65101 -0.63896,0 -1.08503,-0.39784 -1.3382,-1.19352 -0.24111,-0.79568 -0.36167,-2.07962 -0.36167,-3.85182 0,-4.03867 0.48223,-9.04182 1.44669,-15.00943 0.97651,-5.96759 1.74808,-9.45774 2.31471,-10.47045 0.57867,-1.01265 1.16337,-1.519 1.75412,-1.51903"
         style="font-variant:normal;font-stretch:normal;fill:#ffffff;font-family:Segoe Print;-inkscape-font-specification:Segoe Print"
         id="path3032"
         inkscape:connector-curvature="0" />
      <path
         d="m 724.37982,732.17985 c -10e-6,-0.78363 -0.96447,-1.67576 -2.89338,-2.67639 -2.44733,-1.25379 -4.105,-2.25442 -4.97301,-3.00188 -0.85597,-0.75951 -1.28394,-1.60342 -1.28394,-2.53171 0,-2.39909 1.19955,-4.38829 3.59865,-5.96762 2.41115,-1.57928 4.37623,-2.36893 5.89528,-2.36895 0.97649,2e-5 1.68175,0.1688 2.11578,0.50633 0.44605,0.33759 0.66909,0.9223 0.6691,1.75412 -10e-6,0.37375 -0.16277,0.69323 -0.48826,0.95843 -0.31346,0.26525 -0.56061,0.39786 -0.74143,0.39785 -0.13264,10e-6 -0.39183,-0.0905 -0.7776,-0.27125 -0.3858,-0.16877 -0.63897,-0.25316 -0.75952,-0.25318 -0.60279,2e-5 -1.82646,0.44006 -3.67098,1.32011 -1.84454,0.88009 -2.7668,1.87469 -2.76679,2.9838 -10e-6,0.67514 0.3255,1.28997 0.97651,1.84454 0.651,0.54252 1.82041,1.21161 3.50823,2.00727 1.36229,0.65104 2.44731,1.35027 3.25506,2.09772 0.81978,0.7354 1.22968,1.60343 1.22969,2.60404 -10e-6,1.84454 -1.27189,3.29124 -3.81566,4.34008 -2.54377,1.0368 -4.97301,1.5552 -7.28771,1.5552 -1.95304,0 -2.92955,-0.66308 -2.92955,-1.98921 0,-0.45811 0.217,-0.79567 0.65101,-1.01268 0.44606,-0.21701 0.89213,-0.32551 1.33819,-0.32551 0.18083,0 0.52442,0.0603 1.03077,0.18084 0.49428,0.12055 0.81979,0.18083 0.97652,0.18083 1.33818,0 2.77282,-0.22303 4.30391,-0.66909 1.53107,-0.44606 2.47745,-1.00063 2.83913,-1.66369"
         style="font-variant:normal;font-stretch:normal;fill:#ffffff;font-family:Segoe Print;-inkscape-font-specification:Segoe Print"
         id="path3034"
         inkscape:connector-curvature="0" />
      <path
         d="m 736.8033,712.10698 c -0.25319,3e-5 -0.44607,-0.27123 -0.57868,-0.81377 -0.0482,-0.16875 -0.11454,-0.35562 -0.19893,-0.56059 -0.32551,-0.7836 -0.48827,-1.46475 -0.48826,-2.04345 -10e-6,-0.4822 0.28331,-0.97046 0.84994,-1.46478 0.57867,-0.50632 1.21763,-0.75948 1.91686,-0.75951 0.34961,3e-5 0.74143,0.13867 1.17544,0.41592 0.434,0.26526 0.651,0.52446 0.65101,0.7776 -10e-6,0.39786 -0.1507,1.07299 -0.45209,2.02537 -0.28935,0.95243 -0.75952,1.59741 -1.41053,1.93495 -0.63897,0.32553 -1.12722,0.48829 -1.46476,0.48826 m -2.36896,20.19946 c -10e-6,0.91623 0.12657,1.94699 0.37976,3.0923 0.0482,0.217 0.0723,0.39783 0.0723,0.54251 0,0.217 -0.19892,0.49428 -0.59676,0.83185 -0.39785,0.34961 -0.81979,0.52441 -1.26585,0.52442 -1.16942,-10e-6 -1.75413,-1.07296 -1.75412,-3.21889 -10e-6,-2.21825 0.45811,-5.72649 1.37436,-10.52469 0.31345,-1.67574 0.47017,-2.70651 0.47018,-3.09231 -10e-6,-0.7595 0.13863,-1.40448 0.41592,-1.93495 0.27727,-0.54249 0.66908,-0.81375 1.17544,-0.81377 0.61483,2e-5 1.09706,0.15072 1.44669,0.4521 0.36166,0.28935 0.5425,0.61486 0.54251,0.97652 -10e-6,0.36168 -0.0844,0.83788 -0.25318,1.4286 -0.90419,3.18274 -1.46477,5.46128 -1.68177,6.83563 -0.21701,1.37437 -0.32551,3.00792 -0.3255,4.90068"
         style="font-variant:normal;font-stretch:normal;fill:#ffffff;font-family:Segoe Print;-inkscape-font-specification:Segoe Print"
         id="path3036"
         inkscape:connector-curvature="0" />
      <path
         d="m 754.47103,729.77473 c -0.14469,-0.10851 -0.54855,0.22906 -1.21161,1.01268 -1.09709,1.28996 -2.50158,2.43526 -4.2135,3.43589 -1.69987,1.00064 -3.27917,1.50094 -4.73791,1.50094 -1.08502,0 -1.93496,-0.33755 -2.5498,-1.01268 -0.61485,-0.68718 -0.92227,-1.63356 -0.92227,-2.83914 0,-1.86863 0.70527,-3.94825 2.11579,-6.23887 1.41052,-2.30263 3.38164,-4.30992 5.91337,-6.02185 2.54374,-1.71191 4.76804,-2.56786 6.67286,-2.56788 1.00061,2e-5 1.88069,0.28936 2.64022,0.86802 0.18081,0.14468 0.33754,0.26524 0.47018,0.36167 0.21698,0.15674 0.42193,0.47622 0.61483,0.95843 0.19288,0.47019 0.28933,0.84995 0.28935,1.13927 -2e-5,0.18086 -0.0664,0.45814 -0.19892,0.83185 -0.73543,2.00128 -1.23574,3.65894 -1.50095,4.973 -0.26524,1.3141 -0.55459,3.52632 -0.86802,6.63671 -0.28935,2.79695 -0.60281,4.9489 -0.94034,6.45587 -0.33758,1.50697 -0.9464,2.96572 -1.82645,4.37624 -0.8801,1.41052 -1.93497,2.4654 -3.16464,3.16465 -1.2297,0.71128 -2.49556,1.06692 -3.79758,1.06693 -2.25444,-10e-6 -4.47872,-0.7776 -6.67287,-2.33279 -2.19414,-1.5552 -3.29122,-2.80298 -3.29122,-3.74331 0,-0.59074 0.22303,-0.88611 0.6691,-0.88611 0.217,0 0.86199,0.35565 1.93495,1.06694 2.8331,1.89274 5.38289,2.83913 7.64939,2.83914 1.97713,-10e-6 3.47807,-1.0549 4.50282,-3.16465 1.03679,-2.10977 1.74205,-5.26235 2.1158,-9.45775 0.0843,-0.95241 0.18684,-1.76014 0.30742,-2.4232 m -0.0361,-9.92794 c -1.02477,2e-5 -2.30871,0.53047 -3.85182,1.59137 -1.5311,1.06091 -3.01999,2.6161 -4.46667,4.66557 -1.44669,2.04949 -2.17005,3.76744 -2.17004,5.15385 -1e-5,0.47017 0.14467,0.8439 0.43401,1.12118 0.30138,0.26523 0.63291,0.39785 0.9946,0.39785 1.07295,0 2.47142,-0.55457 4.19542,-1.6637 1.73601,-1.10912 3.22489,-2.64623 4.46665,-4.61133 1.25379,-1.97714 1.88069,-3.52631 1.8807,-4.64751 -10e-6,-1.33817 -0.4943,-2.00726 -1.48285,-2.00728"
         style="font-variant:normal;font-stretch:normal;fill:#ffffff;font-family:Segoe Print;-inkscape-font-specification:Segoe Print"
         id="path3038"
         inkscape:connector-curvature="0" />
      <path
         d="m 775.26726,722.41467 c -0.62692,10e-6 -1.3141,0.4099 -2.06154,1.22968 -0.73542,0.81981 -1.86263,2.65832 -3.38165,5.51552 -2.00127,3.83374 -3.29726,6.01584 -3.88799,6.5463 -0.57868,0.53044 -1.06091,0.79566 -1.44669,0.79566 -1.42258,0 -2.13388,-0.68716 -2.13388,-2.06153 0,-0.57867 0.0964,-1.39847 0.28934,-2.45938 0.66307,-3.64083 0.9946,-7.48059 0.9946,-11.51929 0,-0.4581 0.1929,-0.96445 0.57868,-1.51902 0.39784,-0.56661 0.77157,-0.84992 1.12119,-0.84994 0.6269,2e-5 1.07296,0.19291 1.33819,0.57868 0.26522,0.3858 0.39784,1.16341 0.39785,2.33279 -1e-5,1.21765 -0.36168,3.72524 -1.08502,7.52281 -0.24113,1.25381 -0.36169,2.04949 -0.36169,2.38704 0,0.19289 0.0482,0.28934 0.14468,0.28933 0.18083,1e-5 1.01871,-1.44066 2.51363,-4.322 1.50696,-2.92952 2.82707,-4.99106 3.96032,-6.1846 1.13323,-1.19351 2.381,-1.79026 3.74332,-1.79028 1.085,2e-5 1.96507,0.4943 2.64021,1.48286 0.68716,0.98858 1.18748,2.79092 1.50095,5.40702 0.33754,2.97777 0.63894,4.83436 0.90418,5.56975 0.27727,0.72336 0.71127,1.08504 1.30203,1.08503 0.3737,10e-6 0.84388,-0.13261 1.41052,-0.39784 0.0964,-0.0482 0.16875,-0.0723 0.217,-0.0723 0.51838,10e-6 0.77758,0.3014 0.77761,0.90419 -3e-5,0.53046 -0.35568,1.09707 -1.06695,1.69986 -0.71131,0.59074 -1.56726,0.8861 -2.56787,0.8861 -1.02477,0 -1.82044,-0.40386 -2.38705,-1.21161 -0.55457,-0.81978 -0.99461,-2.99585 -1.32011,-6.5282 -0.33758,-3.54438 -1.04886,-5.31658 -2.13386,-5.31659"
         style="font-variant:normal;font-stretch:normal;fill:#ffffff;font-family:Segoe Print;-inkscape-font-specification:Segoe Print"
         id="path3040"
         inkscape:connector-curvature="0" />
      <path
         d="m 799.73444,729.73855 c -1.68781,2.26649 -3.35754,3.96635 -5.00917,5.09959 -1.65166,1.13325 -3.16466,1.69987 -4.539,1.69987 -0.92831,0 -1.73002,-0.39182 -2.40513,-1.17544 -0.67513,-0.78363 -1.01268,-1.79028 -1.01268,-3.01997 0,-3.17066 1.41654,-6.58245 4.24965,-10.23536 2.8331,-3.66494 5.64812,-5.49741 8.44508,-5.49743 1.01266,2e-5 1.76615,0.5787 2.26046,1.73603 0.1567,0.3858 0.40384,0.57869 0.74142,0.57868 0.96445,10e-6 1.44668,0.37374 1.4467,1.12119 -2e-5,0.37374 -0.0603,0.88611 -0.18084,1.5371 -0.65103,3.55648 -0.97654,6.06407 -0.97652,7.52281 -2e-5,2.91751 0.55455,4.66558 1.6637,5.24426 0.53044,0.28935 0.79566,0.64498 0.79568,1.06694 -2e-5,0.37373 -0.25922,0.74746 -0.7776,1.12119 -0.51841,0.38578 -1.01873,0.57868 -1.50094,0.57868 -0.92831,0 -1.69385,-0.63896 -2.29663,-1.91687 -0.6028,-1.27791 -0.9042,-3.09834 -0.90418,-5.46127 m -1.1031,-10.18111 c -1.59138,2e-5 -3.44194,1.49494 -5.55168,4.48476 -2.10978,2.97779 -3.16465,5.44921 -3.16464,7.4143 -10e-6,1.38641 0.4581,2.07962 1.37435,2.07962 1.32612,0 3.16463,-1.33819 5.51552,-4.01457 2.35086,-2.67638 3.5263,-5.13575 3.52632,-7.37813 -2e-5,-1.72397 -0.56665,-2.58596 -1.69987,-2.58598"
         style="font-variant:normal;font-stretch:normal;fill:#ffffff;font-family:Segoe Print;-inkscape-font-specification:Segoe Print"
         id="path3042"
         inkscape:connector-curvature="0" />
      <path
         d="m 822.10393,729.77473 c -0.14469,-0.10851 -0.54855,0.22906 -1.21161,1.01268 -1.09708,1.28996 -2.50158,2.43526 -4.21349,3.43589 -1.69986,1.00064 -3.27918,1.50094 -4.73791,1.50094 -1.08504,0 -1.93496,-0.33755 -2.54981,-1.01268 -0.61484,-0.68718 -0.92226,-1.63356 -0.92226,-2.83914 0,-1.86863 0.70526,-3.94825 2.11578,-6.23887 1.41053,-2.30263 3.38165,-4.30992 5.91337,-6.02185 2.54375,-1.71191 4.76804,-2.56786 6.67287,-2.56788 1.00061,2e-5 1.88068,0.28936 2.6402,0.86802 0.18083,0.14468 0.33756,0.26524 0.47018,0.36167 0.21699,0.15674 0.42194,0.47622 0.61485,0.95843 0.19287,0.47019 0.28932,0.84995 0.28934,1.13927 -2e-5,0.18086 -0.0664,0.45814 -0.19892,0.83185 -0.73542,2.00128 -1.23573,3.65894 -1.50095,4.973 -0.26524,1.3141 -0.55458,3.52632 -0.86801,6.63671 -0.28935,2.79695 -0.60281,4.9489 -0.94035,6.45587 -0.33758,1.50697 -0.9464,2.96572 -1.82645,4.37624 -0.88009,1.41052 -1.93496,2.4654 -3.16464,3.16465 -1.2297,0.71128 -2.49556,1.06692 -3.79757,1.06693 -2.25444,-10e-6 -4.47873,-0.7776 -6.67287,-2.33279 -2.19415,-1.5552 -3.29123,-2.80298 -3.29123,-3.74331 0,-0.59074 0.22304,-0.88611 0.6691,-0.88611 0.217,0 0.86199,0.35565 1.93494,1.06694 2.83311,1.89274 5.38291,2.83913 7.6494,2.83914 1.97713,-10e-6 3.47807,-1.0549 4.50283,-3.16465 1.03679,-2.10977 1.74205,-5.26235 2.11578,-9.45775 0.0843,-0.95241 0.18686,-1.76014 0.30743,-2.4232 m -0.0361,-9.92794 c -1.02475,2e-5 -2.30869,0.53047 -3.85181,1.59137 -1.53109,1.06091 -3.01998,2.6161 -4.46667,4.66557 -1.4467,2.04949 -2.17004,3.76744 -2.17004,5.15385 0,0.47017 0.14468,0.8439 0.43401,1.12118 0.30139,0.26523 0.63293,0.39785 0.99461,0.39785 1.07295,0 2.47142,-0.55457 4.19541,-1.6637 1.73602,-1.10912 3.22489,-2.64623 4.46666,-4.61133 1.25378,-1.97714 1.88069,-3.52631 1.8807,-4.64751 -10e-6,-1.33817 -0.4943,-2.00726 -1.48287,-2.00728"
         style="font-variant:normal;font-stretch:normal;fill:#ffffff;font-family:Segoe Print;-inkscape-font-specification:Segoe Print"
         id="path3044"
         inkscape:connector-curvature="0" />
      <path
         d="m 846.0648,730.19064 c -2e-5,1.22969 -1.09106,2.71255 -3.27314,4.44858 -2.17006,1.73603 -4.41244,2.60405 -6.72713,2.60405 -1.94098,0 -3.44192,-0.57264 -4.50282,-1.71795 -1.04887,-1.14529 -1.57329,-2.74269 -1.57329,-4.79217 0,-3.44794 1.16338,-6.7271 3.49015,-9.83751 2.32675,-3.11037 4.87052,-4.66557 7.63131,-4.66559 0.90416,2e-5 1.63957,0.29539 2.2062,0.88611 0.57866,0.59075 0.868,1.30203 0.86801,2.13387 -10e-6,1.85659 -0.91022,3.63483 -2.73063,5.33467 -1.82043,1.69988 -4.2557,3.3696 -7.3058,5.00918 -0.62689,0.32551 -0.94035,0.74746 -0.94034,1.26585 -10e-6,1.00065 0.28933,1.80236 0.86801,2.40513 0.57867,0.60279 1.43463,0.9042 2.56788,0.90419 2.59198,10e-6 5.23822,-1.43463 7.93873,-4.30392 0.39782,-0.39783 0.69922,-0.59675 0.90418,-0.59675 0.38577,0 0.57866,0.30742 0.57868,0.92226 m -12.56815,-2.82104 c 5.11164,-3.03805 7.66747,-5.47934 7.66748,-7.32389 -10e-6,-0.72333 -0.32553,-1.08501 -0.97652,-1.08503 -1.10914,2e-5 -2.36294,0.81379 -3.76141,2.4413 -1.38642,1.62754 -2.36292,3.61675 -2.92955,5.96762"
         style="font-variant:normal;font-stretch:normal;fill:#ffffff;font-family:Segoe Print;-inkscape-font-specification:Segoe Print"
         id="path3046"
         inkscape:connector-curvature="0" />
      <path
         d="m 880.13439,730.19064 c -2e-5,1.22969 -1.09107,2.71255 -3.27315,4.44858 -2.17005,1.73603 -4.41242,2.60405 -6.72711,2.60405 -1.941,0 -3.44194,-0.57264 -4.50285,-1.71795 -1.04884,-1.14529 -1.57327,-2.74269 -1.57327,-4.79217 0,-3.44794 1.16338,-6.7271 3.49014,-9.83751 2.32677,-3.11037 4.87052,-4.66557 7.63131,-4.66559 0.90417,2e-5 1.63957,0.29539 2.20621,0.88611 0.57866,0.59075 0.868,1.30203 0.86802,2.13387 -2e-5,1.85659 -0.91022,3.63483 -2.73063,5.33467 -1.82045,1.69988 -4.25571,3.3696 -7.30581,5.00918 -0.62691,0.32551 -0.94035,0.74746 -0.94035,1.26585 0,1.00065 0.28934,1.80236 0.86802,2.40513 0.57867,0.60279 1.43462,0.9042 2.56788,0.90419 2.59198,10e-6 5.23822,-1.43463 7.93872,-4.30392 0.39784,-0.39783 0.69922,-0.59675 0.90418,-0.59675 0.38578,0 0.57867,0.30742 0.57869,0.92226 m -12.56814,-2.82104 c 5.11162,-3.03805 7.66745,-5.47934 7.66746,-7.32389 -10e-6,-0.72333 -0.32551,-1.08501 -0.97652,-1.08503 -1.10914,2e-5 -2.36293,0.81379 -3.7614,2.4413 -1.38641,1.62754 -2.36294,3.61675 -2.92954,5.96762"
         style="font-variant:normal;font-stretch:normal;fill:#ffffff;font-family:Segoe Print;-inkscape-font-specification:Segoe Print"
         id="path3048"
         inkscape:connector-curvature="0" />
      <path
         d="m 896.0842,729.73855 c -1.68782,2.26649 -3.35755,3.96635 -5.00918,5.09959 -1.65164,1.13325 -3.16465,1.69987 -4.53899,1.69987 -0.92831,0 -1.73002,-0.39182 -2.40513,-1.17544 -0.67513,-0.78363 -1.01269,-1.79028 -1.01269,-3.01997 0,-3.17066 1.41655,-6.58245 4.24966,-10.23536 2.8331,-3.66494 5.64812,-5.49741 8.44507,-5.49743 1.01267,2e-5 1.76615,0.5787 2.26046,1.73603 0.15671,0.3858 0.40385,0.57869 0.74143,0.57868 0.96444,10e-6 1.44667,0.37374 1.44669,1.12119 -2e-5,0.37374 -0.0603,0.88611 -0.18084,1.5371 -0.65102,3.55648 -0.97653,6.06407 -0.97651,7.52281 -2e-5,2.91751 0.55454,4.66558 1.6637,5.24426 0.53043,0.28935 0.79566,0.64498 0.79568,1.06694 -2e-5,0.37373 -0.25922,0.74746 -0.77761,1.12119 -0.51841,0.38578 -1.01872,0.57868 -1.50093,0.57868 -0.92831,0 -1.69386,-0.63896 -2.29663,-1.91687 -0.6028,-1.27791 -0.9042,-3.09834 -0.90418,-5.46127 m -1.10311,-10.18111 c -1.59137,2e-5 -3.44193,1.49494 -5.55168,4.48476 -2.10977,2.97779 -3.16465,5.44921 -3.16464,7.4143 -10e-6,1.38641 0.45811,2.07962 1.37435,2.07962 1.32614,0 3.16463,-1.33819 5.51552,-4.01457 2.35086,-2.67638 3.52629,-5.13575 3.52631,-7.37813 -2e-5,-1.72397 -0.56662,-2.58596 -1.69986,-2.58598"
         style="font-variant:normal;font-stretch:normal;fill:#ffffff;font-family:Segoe Print;-inkscape-font-specification:Segoe Print"
         id="path3050"
         inkscape:connector-curvature="0" />
      <path
         d="m 914.76462,732.17985 c -1e-5,-0.78363 -0.96447,-1.67576 -2.89338,-2.67639 -2.44733,-1.25379 -4.105,-2.25442 -4.97301,-3.00188 -0.85596,-0.75951 -1.28394,-1.60342 -1.28394,-2.53171 0,-2.39909 1.19954,-4.38829 3.59864,-5.96762 2.41115,-1.57928 4.37625,-2.36893 5.89528,-2.36895 0.9765,2e-5 1.68177,0.1688 2.11579,0.50633 0.44605,0.33759 0.66908,0.9223 0.66909,1.75412 -10e-6,0.37375 -0.16277,0.69323 -0.48825,0.95843 -0.31347,0.26525 -0.56061,0.39786 -0.74143,0.39785 -0.13263,10e-6 -0.39183,-0.0905 -0.7776,-0.27125 -0.3858,-0.16877 -0.63897,-0.25316 -0.75952,-0.25318 -0.6028,2e-5 -1.82646,0.44006 -3.67098,1.32011 -1.84454,0.88009 -2.76681,1.87469 -2.7668,2.9838 -10e-6,0.67514 0.3255,1.28997 0.97651,1.84454 0.65102,0.54252 1.82042,1.21161 3.50824,2.00727 1.36228,0.65104 2.44731,1.35027 3.25506,2.09772 0.81977,0.7354 1.22968,1.60343 1.22969,2.60404 -10e-6,1.84454 -1.2719,3.29124 -3.81566,4.34008 -2.54378,1.0368 -4.97301,1.5552 -7.28772,1.5552 -1.95303,0 -2.92955,-0.66308 -2.92955,-1.98921 0,-0.45811 0.21701,-0.79567 0.65101,-1.01268 0.44607,-0.21701 0.89213,-0.32551 1.3382,-0.32551 0.18084,0 0.52441,0.0603 1.03077,0.18084 0.49428,0.12055 0.81979,0.18083 0.97652,0.18083 1.33817,0 2.77281,-0.22303 4.30391,-0.66909 1.53107,-0.44606 2.47744,-1.00063 2.83913,-1.66369"
         style="font-variant:normal;font-stretch:normal;fill:#ffffff;font-family:Segoe Print;-inkscape-font-specification:Segoe Print"
         id="path3052"
         inkscape:connector-curvature="0" />
      <path
         d="m 934.729,729.93748 c -2.21827,1.92892 -4.17131,3.33342 -5.8591,4.21348 -1.67577,0.86802 -2.9597,1.30203 -3.85182,1.30203 -1.19353,0 -2.10977,-0.49429 -2.74872,-1.48287 -0.62691,-1.00062 -0.94035,-2.164 -0.94035,-3.49013 0,-1.85659 0.37373,-4.14719 1.12118,-6.87181 0.75952,-2.73664 1.32011,-4.35814 1.68178,-4.86449 0.37373,-0.51839 0.96446,-0.77758 1.77221,-0.7776 0.33754,2e-5 0.61484,0.19893 0.83185,0.59676 0.21699,0.39785 0.3255,0.84995 0.3255,1.35627 0,0.30142 -0.13866,0.69323 -0.41592,1.17544 -0.65102,1.13325 -0.99461,1.76016 -1.03077,1.8807 -0.0241,0.12057 -0.25318,0.84994 -0.68718,2.18812 -0.43401,1.32615 -0.65102,2.57392 -0.65101,3.74332 -10e-6,0.4099 0.0964,1.04886 0.28933,1.91686 0.20494,0.86802 0.62087,1.30204 1.24777,1.30204 0.66307,0 1.47683,-0.19892 2.4413,-0.59677 0.9765,-0.40989 2.07359,-1.07296 3.29124,-1.9892 1.21761,-0.91623 2.0374,-1.65766 2.45937,-2.22429 0.42194,-0.56661 0.7173,-1.2116 0.88609,-1.93495 0.18083,-0.72333 0.30741,-2.29059 0.37976,-4.70176 0.0723,-2.41113 0.65702,-3.6167 1.75412,-3.61673 0.65099,3e-5 1.07294,0.17484 1.26586,0.52443 0.19287,0.33758 0.28931,0.98859 0.28933,1.95303 -2e-5,0.7957 -0.0543,1.7903 -0.16275,2.98381 -0.13263,1.50698 -0.21703,2.57995 -0.25317,3.21889 -0.1688,3.31534 -0.60281,6.64876 -1.30203,10.00027 -0.6872,3.33945 -1.69384,6.13035 -3.01997,8.37273 -1.32614,2.25442 -3.15259,3.38163 -5.47935,3.38164 -2.36293,-1e-5 -4.46666,-0.62087 -6.31119,-1.86262 -1.83249,-1.22969 -2.74872,-2.27251 -2.74872,-3.12846 0,-0.39786 0.0905,-0.78966 0.27125,-1.17544 0.19289,-0.38579 0.43401,-0.57868 0.72335,-0.57868 0.14467,0 0.30139,0.11453 0.47018,0.34359 1.57931,2.4232 4.06278,3.6348 7.45046,3.63481 1.74807,-1e-5 3.21286,-1.53711 4.39434,-4.61133 1.1935,-3.06216 1.85054,-5.93746 1.97111,-8.6259 0.0241,-0.5184 0.0723,-1.0368 0.14467,-1.55519"
         style="font-variant:normal;font-stretch:normal;fill:#ffffff;font-family:Segoe Print;-inkscape-font-specification:Segoe Print"
         id="path3054"
         inkscape:connector-curvature="0" />
    </g>
  </g>
</svg>
