<?xml version="1.0" encoding="UTF-8" standalone="no"?>
<!-- Created with Inkscape (http://www.inkscape.org/) -->

<svg
   xmlns:dc="http://purl.org/dc/elements/1.1/"
   xmlns:cc="http://creativecommons.org/ns#"
   xmlns:rdf="http://www.w3.org/1999/02/22-rdf-syntax-ns#"
   xmlns:svg="http://www.w3.org/2000/svg"
   xmlns="http://www.w3.org/2000/svg"
   xmlns:sodipodi="http://sodipodi.sourceforge.net/DTD/sodipodi-0.dtd"
   xmlns:inkscape="http://www.inkscape.org/namespaces/inkscape"
   width="1280"
   height="720"
   id="svg2"
   version="1.1"
   inkscape:version="0.48.3.1 r9886"
   inkscape:export-filename="/home/xavier/project/github-project/synapse-mobile/synapselite/res/drawable/synapse.png"
   inkscape:export-xdpi="90"
   inkscape:export-ydpi="90"
   sodipodi:docname="New document 1">
  <defs
     id="defs4">
    <linearGradient
       id="linearGradient2989">
      <stop
         style="stop-color:#ffffff;stop-opacity:1;"
         offset="0"
         id="stop2991" />
      <stop
         style="stop-color:#000000;stop-opacity:0;"
         offset="1"
         id="stop2993" />
    </linearGradient>
  </defs>
  <sodipodi:namedview
     id="base"
     pagecolor="#000000"
     bordercolor="#666666"
     borderopacity="1.0"
     inkscape:pageopacity="1"
     inkscape:pageshadow="2"
     inkscape:zoom="0.49497475"
     inkscape:cx="472.70081"
     inkscape:cy="430.45836"
     inkscape:document-units="px"
     inkscape:current-layer="text2985"
     showgrid="false"
     inkscape:window-width="1366"
     inkscape:window-height="667"
     inkscape:window-x="0"
     inkscape:window-y="0"
     inkscape:window-maximized="1" />
  <metadata
     id="metadata7">
    <rdf:RDF>
      <cc:Work
         rdf:about="">
        <dc:format>image/svg+xml</dc:format>
        <dc:type
           rdf:resource="http://purl.org/dc/dcmitype/StillImage" />
        <dc:title></dc:title>
      </cc:Work>
    </rdf:RDF>
  </metadata>
  <g
     inkscape:label="Layer 1"
     inkscape:groupmode="layer"
     id="layer1"
     transform="translate(0,-332.36218)">
    <g
       style="font-size:133.40216064px;font-style:normal;font-weight:normal;text-align:center;line-height:125%;letter-spacing:0px;word-spacing:0px;text-anchor:middle;fill:#ffffff;fill-opacity:1;stroke:none;font-family:Sans"
       id="text2985">
      <path
         d="m 422.79375,658.7877 c -8e-5,3.77801 -0.8903,7.51258 -2.67065,11.2037 -1.73708,3.69115 -4.1906,6.81776 -7.36056,9.37984 -3.47409,2.77921 -7.53434,4.95047 -12.18077,6.51377 -4.60312,1.56331 -10.16154,2.34496 -16.67527,2.34496 -6.99149,0 -13.28814,-0.65138 -18.88995,-1.95413 -5.55845,-1.30275 -11.22543,-3.23517 -17.00096,-5.79726 l 0,-16.15417 0.91193,0 c 4.90703,4.08198 10.57401,7.23031 17.00096,9.44498 6.42689,2.21469 12.46298,3.32203 18.1083,3.32202 7.99018,10e-6 14.19997,-1.49815 18.6294,-4.4945 4.47273,-2.99632 6.70912,-6.99144 6.70919,-11.98535 -7e-5,-4.29907 -1.06398,-7.4691 -3.19175,-9.51012 -2.08447,-2.04094 -5.27622,-3.62596 -9.57525,-4.75506 -3.25694,-0.86846 -6.79609,-1.58497 -10.61746,-2.14954 -3.77803,-0.56449 -7.79486,-1.281 -12.05049,-2.14955 -8.59821,-1.82381 -14.98171,-4.92871 -19.1505,-9.3147 -4.12541,-4.42931 -6.1881,-10.18314 -6.18809,-17.26151 -1e-5,-8.12043 3.43058,-14.76448 10.29177,-19.93216 6.86115,-5.21093 15.56789,-7.81643 26.12024,-7.81653 6.81771,10e-5 13.07093,0.65147 18.75968,1.95413 5.68863,1.30285 10.72595,2.90958 15.11197,4.8202 l 0,15.24223 -0.91193,0 c -3.69122,-3.12653 -8.55483,-5.71032 -14.59086,-7.75139 -5.99274,-2.08432 -12.13739,-3.12653 -18.43399,-3.12661 -6.90465,8e-5 -12.46306,1.43311 -16.67527,4.29909 -4.16885,2.86614 -6.25325,6.55728 -6.25323,11.07342 -2e-5,4.03861 1.04218,7.20865 3.12661,9.51012 2.08438,2.30159 5.75381,4.06031 11.00829,5.27616 2.77917,0.60801 6.73086,1.34623 11.85507,2.21468 5.12412,0.86856 9.46663,1.75877 13.02756,2.67065 7.20851,1.91076 12.63665,4.79853 16.28444,8.66332 3.64763,3.86488 5.47149,9.27131 5.47157,16.21931"
         style="font-variant:normal;font-stretch:normal;fill:#ffffff;font-family:Verdana;-inkscape-font-specification:Verdana"
         id="path3057" />
      <path
         d="m 512.16278,589.48111 -34.13219,54.45518 0,42.53496 -12.89728,0 0,-41.16707 -34.26247,-55.82307 14.26517,0 26.51108,43.38175 26.77162,-43.38175 13.74407,0"
         style="font-variant:normal;font-stretch:normal;fill:#ffffff;font-family:Verdana;-inkscape-font-specification:Verdana"
         id="path3059" />
      <path
         d="m 599.57767,686.47125 -15.95875,0 -45.98727,-86.76351 0,86.76351 -12.05049,0 0,-96.99014 19.9973,0 41.94872,79.20753 0,-79.20753 12.05049,0 0,96.99014"
         style="font-variant:normal;font-stretch:normal;fill:#ffffff;font-family:Verdana;-inkscape-font-specification:Verdana"
         id="path3061" />
      <path
         d="m 701.84398,686.47125 -13.74407,0 -9.51011,-27.03217 -41.94873,0 -9.51011,27.03217 -13.09269,0 35.30467,-96.99014 17.19637,0 35.30467,96.99014 m -27.22759,-38.1056 -17.00095,-47.61571 -17.0661,47.61571 34.06705,0"
         style="font-variant:normal;font-stretch:normal;fill:#ffffff;font-family:Verdana;-inkscape-font-specification:Verdana"
         id="path3063" />
      <path
         d="m 780.0093,618.79311 c -8e-5,4.29915 -0.76002,8.29426 -2.27982,11.98535 -1.47653,3.64776 -3.56094,6.8178 -6.25323,9.51011 -3.3438,3.34378 -7.29549,5.86244 -11.85507,7.55598 -4.5597,1.6502 -10.31353,2.47527 -17.26151,2.47524 l -12.89728,0 0,36.15146 -12.89728,0 0,-96.99014 26.31566,0 c 5.81893,9e-5 10.74768,0.49948 14.78627,1.49817 4.03849,0.95544 7.62106,2.47532 10.74774,4.55964 3.69107,2.47532 6.53542,5.55851 8.53305,9.24956 2.0409,3.69122 3.06139,8.35943 3.06147,14.00463 m -13.41838,0.32568 c -6e-5,-3.34366 -0.5863,-6.25315 -1.75872,-8.72846 -1.17254,-2.47515 -2.95297,-4.49442 -5.3413,-6.05781 -2.08446,-1.3461 -4.47284,-2.30145 -7.16515,-2.86606 -2.64899,-0.60787 -6.01443,-0.91185 -10.09636,-0.91193 l -12.767,0 0,38.75697 10.87801,0 c 5.21098,5e-5 9.44493,-0.45591 12.70186,-1.36789 3.25684,-0.9553 5.90577,-2.45347 7.94681,-4.49451 2.04092,-2.08435 3.47395,-4.27732 4.29909,-6.57891 0.86844,-2.30147 1.3027,-4.88527 1.30276,-7.7514"
         style="font-variant:normal;font-stretch:normal;fill:#ffffff;font-family:Verdana;-inkscape-font-specification:Verdana"
         id="path3065" />
      <path
         d="m 867.5545,658.7877 c -9e-5,3.77801 -0.8903,7.51258 -2.67065,11.2037 -1.73709,3.69115 -4.19061,6.81776 -7.36057,9.37984 -3.47409,2.77921 -7.53434,4.95047 -12.18077,6.51377 -4.60312,1.56331 -10.16154,2.34496 -16.67527,2.34496 -6.99149,0 -13.28813,-0.65138 -18.88995,-1.95413 -5.55844,-1.30275 -11.22542,-3.23517 -17.00096,-5.79726 l 0,-16.15417 0.91193,0 c 4.90703,4.08198 10.57401,7.23031 17.00096,9.44498 6.42689,2.21469 12.46299,3.32203 18.1083,3.32202 7.99018,10e-6 14.19998,-1.49815 18.6294,-4.4945 4.47273,-2.99632 6.70912,-6.99144 6.70919,-11.98535 -7e-5,-4.29907 -1.06398,-7.4691 -3.19175,-9.51012 -2.08447,-2.04094 -5.27622,-3.62596 -9.57525,-4.75506 -3.25694,-0.86846 -6.79609,-1.58497 -10.61746,-2.14954 -3.77803,-0.56449 -7.79486,-1.281 -12.05049,-2.14955 -8.59821,-1.82381 -14.9817,-4.92871 -19.1505,-9.3147 -4.1254,-4.42931 -6.1881,-10.18314 -6.18809,-17.26151 -10e-6,-8.12043 3.43058,-14.76448 10.29177,-19.93216 6.86115,-5.21093 15.56789,-7.81643 26.12025,-7.81653 6.8177,10e-5 13.07092,0.65147 18.75968,1.95413 5.68862,1.30285 10.72594,2.90958 15.11196,4.8202 l 0,15.24223 -0.91193,0 c -3.69122,-3.12653 -8.55483,-5.71032 -14.59086,-7.75139 -5.99273,-2.08432 -12.13739,-3.12653 -18.43399,-3.12661 -6.90464,8e-5 -12.46306,1.43311 -16.67527,4.29909 -4.16884,2.86614 -6.25325,6.55728 -6.25323,11.07342 -2e-5,4.03861 1.04218,7.20865 3.12662,9.51012 2.08438,2.30159 5.7538,4.06031 11.00828,5.27616 2.77917,0.60801 6.73086,1.34623 11.85507,2.21468 5.12412,0.86856 9.46664,1.75877 13.02756,2.67065 7.20851,1.91076 12.63665,4.79853 16.28444,8.66332 3.64764,3.86488 5.47149,9.27131 5.47158,16.21931"
         style="font-variant:normal;font-stretch:normal;fill:#ffffff;font-family:Verdana;-inkscape-font-specification:Verdana"
         id="path3067" />
      <path
         d="m 952.16845,686.47125 -63.90016,0 0,-96.99014 63.90016,0 0,11.46425 -51.00288,0 0,26.57621 51.00288,0 0,11.46425 -51.00288,0 0,36.02118 51.00288,0 0,11.46425"
         style="font-variant:normal;font-stretch:normal;fill:#ffffff;font-family:Verdana;-inkscape-font-specification:Verdana"
         id="path3069" />
    </g>
    <g
       style="font-size:39.47446060000000045px;font-style:normal;font-weight:normal;text-align:center;line-height:125%;letter-spacing:0px;word-spacing:0px;text-anchor:middle;fill:#ffffff;fill-opacity:1;stroke:none;font-family:Sans"
       id="text2999">
      <path
         d="m 363.36679,731.61314 c -1.19504,0.0257 -3.75214,3.56582 -7.6713,10.62032 -1.32354,2.37721 -2.09452,3.67503 -2.31296,3.89348 -0.21845,0.2056 -0.62322,0.39192 -1.2143,0.55896 -0.57825,0.16705 -1.06011,0.25057 -1.4456,0.25057 -0.86094,0 -1.2914,-1.67689 -1.2914,-5.03068 0,-1.8889 0.40476,-5.30694 1.2143,-10.25411 0.33409,-2.00454 0.50114,-3.43729 0.50114,-4.29824 0,-0.84806 0.37907,-1.27211 1.13721,-1.27213 1.42631,2e-5 2.13947,1.028 2.13948,3.08395 -10e-6,0.96375 -0.23773,2.85266 -0.71316,5.66674 -0.55255,3.21245 -0.83524,5.16561 -0.84808,5.85949 0.79667,-0.77098 1.966,-2.46072 3.50798,-5.06923 2.18445,-3.57222 3.79066,-5.83377 4.81866,-6.78467 1.04081,-0.96372 2.11377,-1.44558 3.21886,-1.4456 0.83522,2e-5 1.49698,0.55898 1.98529,1.67689 0.50112,1.11795 0.80309,3.78427 0.90591,7.99898 0.0257,1.05369 0.12205,1.83752 0.28912,2.3515 0.16702,0.514 0.2891,0.771 0.36622,0.77099 0.60391,1e-5 1.91459,-2.05595 3.93202,-6.16788 1.07936,-2.1716 2.12661,-3.82279 3.14177,-4.95359 1.02795,-1.13076 2.16515,-1.69615 3.41161,-1.69616 1.0408,1e-5 1.79893,0.5397 2.27441,1.61906 0.4754,1.06655 0.81592,2.6535 1.02155,4.76084 0.19272,2.13307 0.48826,4.08623 0.88664,5.85949 0.41115,1.77327 1.15644,2.91048 2.23586,3.41161 0.73239,0.34695 1.09861,0.75172 1.09865,1.2143 -4e-5,0.44975 -0.30843,0.91234 -0.92518,1.38778 -0.61683,0.47544 -1.18222,0.71316 -1.69617,0.71316 -1.02802,0 -1.94677,-0.62964 -2.75627,-1.88891 -0.80957,-1.25928 -1.41994,-3.98342 -1.83109,-8.17245 -0.17993,-1.68331 -0.35341,-2.87833 -0.52042,-3.58508 -0.16708,-0.70673 -0.4305,-1.06009 -0.79026,-1.06011 -0.53972,2e-5 -1.18221,0.51401 -1.92746,1.54197 -0.73247,1.02799 -1.92107,3.11608 -3.56581,6.26426 -1.285,2.45431 -2.26158,4.09265 -2.92975,4.91503 -0.65536,0.80954 -1.29142,1.21431 -1.90819,1.2143 -0.55256,1e-5 -1.04727,-0.21844 -1.48414,-0.65533 -0.43691,-0.44974 -0.71318,-0.98301 -0.82881,-1.5998 -0.11567,-0.62963 -0.23774,-2.16518 -0.36622,-4.60664 -0.19277,-4.06051 -0.54613,-6.42486 -1.06011,-7.09306"
         style="font-variant:normal;font-stretch:normal;font-family:Segoe Print;-inkscape-font-specification:Segoe Print;fill:#ffffff"
         id="path3004" />
      <path
         d="m 402.35939,739.84341 c -1.79898,2.41576 -3.57867,4.22757 -5.33908,5.43544 -1.76042,1.20788 -3.37307,1.81182 -4.83793,1.81182 -0.98944,0 -1.84394,-0.41762 -2.56353,-1.25285 -0.71959,-0.83523 -1.07938,-1.90819 -1.07938,-3.21887 0,-3.37947 1.50985,-7.01595 4.52954,-10.90944 3.01969,-3.90631 6.0201,-5.85947 9.00126,-5.85949 1.07936,2e-5 1.88247,0.61681 2.40933,1.85036 0.16703,0.41121 0.43045,0.61681 0.79026,0.61679 1.02796,2e-5 1.54195,0.39836 1.54197,1.19503 -2e-5,0.39836 -0.0643,0.94447 -0.19275,1.63834 -0.6939,3.7907 -1.04085,6.46344 -1.04083,8.01825 -2e-5,3.10965 0.59107,4.97286 1.77327,5.58965 0.56537,0.3084 0.84806,0.68746 0.84808,1.1372 -2e-5,0.39835 -0.27629,0.79669 -0.82881,1.19503 -0.55256,0.41119 -1.08582,0.61679 -1.59979,0.61679 -0.98945,0 -1.80541,-0.68104 -2.44788,-2.04311 -0.6425,-1.36207 -0.96375,-3.30239 -0.96373,-5.82094 m -1.17575,-10.85163 c -1.69619,2e-5 -3.66862,1.59339 -5.91732,4.78012 -2.24871,3.1739 -3.37307,5.80809 -3.37306,7.9026 -10e-6,1.47772 0.48828,2.21658 1.46487,2.21658 1.41347,0 3.37305,-1.42632 5.87877,-4.27897 2.50569,-2.85264 3.75854,-5.47398 3.75855,-7.86405 -1e-5,-1.8375 -0.60395,-2.75626 -1.81181,-2.75628"
         style="font-variant:normal;font-stretch:normal;font-family:Segoe Print;-inkscape-font-specification:Segoe Print;fill:#ffffff"
         id="path3006" />
      <path
         d="m 416.31423,737.85812 c 0.16704,-0.21844 1.31709,-1.25284 3.45016,-3.10322 2.0174,-1.7604 3.42444,-3.03895 4.22114,-3.83565 2.96828,-2.96828 5.10134,-4.45242 6.39918,-4.45244 1.00226,2e-5 1.5034,0.48188 1.50343,1.44559 -3e-5,1.09225 -0.49474,1.89536 -1.48415,2.40933 -1.285,0.65536 -3.00044,1.74759 -5.14633,3.27669 -2.14592,1.51629 -3.21888,2.58924 -3.21887,3.21887 -1e-5,0.257 0.75813,1.22073 2.27441,2.89119 1.51626,1.65763 2.82693,2.88478 3.93203,3.68146 1.10506,0.78384 2.17801,1.17576 3.21886,1.17575 l 0.63607,-0.0193 c 0.44972,-0.0257 0.67459,0.17347 0.67461,0.59751 -2e-5,0.56539 -0.35339,1.13721 -1.06011,1.71544 -0.70675,0.59109 -1.63836,0.88664 -2.79482,0.88664 -0.7453,0 -1.50344,-0.26342 -2.27441,-0.79026 -0.75815,-0.51399 -2.1138,-1.91461 -4.06695,-4.20187 -1.55483,-1.88891 -2.52498,-3.01326 -2.91047,-3.37306 -0.3855,-0.37264 -0.70674,-0.55896 -0.96373,-0.55897 -0.14135,10e-6 -0.5911,0.3341 -1.34922,1.00228 -0.75815,0.6682 -1.17576,1.17576 -1.25285,1.5227 -0.0643,0.34695 -0.0964,1.67047 -0.0964,3.97057 l 0,0.90591 c 0,0.47544 -0.22487,0.89948 -0.67461,1.27213 -0.44975,0.37264 -0.93804,0.55896 -1.46487,0.55896 -0.5397,0 -0.96374,-0.16062 -1.27213,-0.48186 -0.3084,-0.3084 -0.46259,-0.62964 -0.46259,-0.96374 0,-0.46259 0.17347,-1.55481 0.52042,-3.27668 0.48828,-2.48 0.93802,-5.80166 1.34922,-9.96499 0.95088,-9.83004 1.68331,-15.38756 2.19731,-16.67256 0.51398,-1.2978 1.24642,-1.94671 2.19731,-1.94674 0.33408,3e-5 0.61035,0.17993 0.82881,0.53969 0.23128,0.35982 0.34693,0.82241 0.34694,1.38777 -10e-6,1.02801 -0.44333,3.75858 -1.32995,8.19172 -0.88664,4.44604 -1.52913,8.7764 -1.92746,12.99111"
         style="font-variant:normal;font-stretch:normal;font-family:Segoe Print;-inkscape-font-specification:Segoe Print;fill:#ffffff"
         id="path3008" />
      <path
         d="m 452.4349,740.32527 c -2e-5,1.31068 -1.16292,2.8912 -3.48871,4.74156 -2.31297,1.85037 -4.70302,2.77555 -7.17016,2.77555 -2.06882,0 -3.66862,-0.61036 -4.79939,-1.83109 -1.11793,-1.22072 -1.6769,-2.92332 -1.67689,-5.10778 -1e-5,-3.67502 1.24,-7.17015 3.72,-10.4854 2.48,-3.31522 5.19129,-4.97284 8.1339,-4.97286 0.96372,2e-5 1.74755,0.31484 2.35151,0.94446 0.61677,0.62966 0.92516,1.38779 0.92518,2.27441 -2e-5,1.97887 -0.97017,3.87421 -2.91047,5.68601 -1.94033,1.81183 -4.53598,3.59152 -7.78696,5.33908 -0.66819,0.34695 -1.00228,0.79669 -1.00228,1.34922 0,1.06654 0.30839,1.92105 0.92518,2.56353 0.61679,0.64249 1.52912,0.96374 2.737,0.96373 2.76269,10e-6 5.58321,-1.52911 8.46157,-4.58736 0.42402,-0.42404 0.74527,-0.63606 0.96373,-0.63606 0.41118,0 0.61677,0.32767 0.61679,0.983 m -13.39587,-3.00684 c 5.44828,-3.23813 8.17243,-5.8402 8.17244,-7.80623 -1e-5,-0.77097 -0.34695,-1.15646 -1.04083,-1.15648 -1.18219,2e-5 -2.51856,0.86738 -4.00912,2.60208 -1.47773,1.73473 -2.51856,3.85494 -3.12249,6.36063"
         style="font-variant:normal;font-stretch:normal;font-family:Segoe Print;-inkscape-font-specification:Segoe Print;fill:#ffffff"
         id="path3010" />
      <path
         d="m 486.49318,740.05543 c -2.36437,2.05596 -4.44603,3.55296 -6.24498,4.49099 -1.78613,0.92518 -3.15462,1.38777 -4.1055,1.38777 -1.27213,0 -2.24871,-0.52684 -2.92974,-1.58052 -0.66819,-1.06652 -1.00229,-2.30653 -1.00228,-3.72 -1e-5,-1.97886 0.39834,-4.42031 1.19502,-7.32437 0.80953,-2.91688 1.40705,-4.64517 1.79254,-5.18487 0.39834,-0.55252 1.02798,-0.82879 1.88892,-0.82881 0.35978,2e-5 0.65533,0.21204 0.88663,0.63606 0.23129,0.42406 0.34694,0.90593 0.34695,1.4456 -10e-6,0.32126 -0.14778,0.73888 -0.44332,1.25285 -0.69389,1.20789 -1.06011,1.87608 -1.09865,2.00456 -0.0257,0.12851 -0.26986,0.90592 -0.73244,2.33223 -0.4626,1.41349 -0.69389,2.74344 -0.69389,3.98985 0,0.4369 0.10279,1.11794 0.3084,2.04311 0.21844,0.92519 0.66175,1.38778 1.32995,1.38778 0.70672,0 1.57408,-0.21202 2.60207,-0.63606 1.04082,-0.43689 2.21015,-1.14363 3.50799,-2.12021 1.29781,-0.97658 2.17159,-1.76684 2.62135,-2.37079 0.44972,-0.60392 0.76454,-1.29139 0.94445,-2.06238 0.19273,-0.77097 0.32766,-2.44144 0.40477,-5.01141 0.0771,-2.56993 0.7003,-3.8549 1.86964,-3.85493 0.69387,3e-5 1.14361,0.18635 1.34923,0.55897 0.20557,0.35981 0.30837,1.0537 0.30839,2.08166 -2e-5,0.8481 -0.0578,1.90821 -0.17347,3.18032 -0.14137,1.60623 -0.23132,2.74986 -0.26985,3.43088 -0.17991,3.53369 -0.6425,7.08665 -1.38777,10.65888 -0.73245,3.55938 -1.80541,6.53409 -3.21886,8.92415 -1.41349,2.4029 -3.36023,3.60435 -5.84022,3.60436 -2.51856,-1e-5 -4.76084,-0.66177 -6.72685,-1.98529 -1.95316,-1.31068 -2.92974,-2.42218 -2.92974,-3.33451 0,-0.42405 0.0964,-0.84166 0.28912,-1.25285 0.20559,-0.4112 0.46259,-0.61679 0.77098,-0.61679 0.1542,0 0.32124,0.12207 0.50114,0.36622 1.68332,2.58279 4.33036,3.87419 7.94115,3.8742 1.86321,-10e-6 3.42445,-1.63835 4.68374,-4.91503 1.27211,-3.26384 1.97242,-6.3285 2.10094,-9.194 0.0257,-0.55254 0.0771,-1.10508 0.15419,-1.65762"
         style="font-variant:normal;font-stretch:normal;font-family:Segoe Print;-inkscape-font-specification:Segoe Print;fill:#ffffff"
         id="path3012" />
      <path
         d="m 501.23829,747.82311 c -1.76042,0 -3.21244,-0.66819 -4.35607,-2.00457 -1.14363,-1.33637 -1.71544,-2.98756 -1.71544,-4.95358 0,-3.31523 1.1115,-6.57906 3.33451,-9.79151 2.23585,-3.22527 4.9086,-4.83792 8.01825,-4.83794 2.05595,2e-5 3.71999,0.79028 4.99213,2.37078 1.28496,1.58054 1.92745,3.46303 1.92747,5.64747 -2e-5,3.34095 -1.32355,6.43774 -3.97058,9.29038 -2.63421,2.85264 -5.37763,4.27897 -8.23027,4.27897 m -2.67917,-7.45929 c -1e-5,1.29783 0.26983,2.35794 0.80953,3.18032 0.55253,0.82238 1.27854,1.23358 2.17803,1.23357 1.91461,1e-5 3.83565,-1.04725 5.76312,-3.14176 1.92745,-2.10736 2.89118,-4.44601 2.8912,-7.01597 -2e-5,-1.58051 -0.37266,-2.85906 -1.11793,-3.83565 -0.73245,-0.98942 -1.72188,-1.48413 -2.9683,-1.48415 -2.06882,2e-5 -3.84851,1.27214 -5.33907,3.81638 -1.47773,2.53141 -2.21659,4.94716 -2.21658,7.24726"
         style="font-variant:normal;font-stretch:normal;font-family:Segoe Print;-inkscape-font-specification:Segoe Print;fill:#ffffff"
         id="path3014" />
      <path
         d="m 531.57657,738.47491 c -1.64478,2.7627 -3.3281,4.90218 -5.04995,6.41845 -1.72188,1.51627 -3.32167,2.27441 -4.79939,2.27441 -0.84809,0 -1.71545,-0.49472 -2.60207,-1.48415 -0.87379,-0.98943 -1.31068,-2.51212 -1.31068,-4.56809 0,-1.68331 0.40476,-4.16331 1.2143,-7.44001 0.68104,-2.73698 1.02155,-4.65802 1.02156,-5.76312 0.37264,-0.77096 0.9573,-1.15645 1.75399,-1.15647 0.53968,2e-5 0.97015,0.19276 1.2914,0.57824 0.32124,0.37266 0.48186,0.76458 0.48187,1.17575 -10e-6,0.8995 -0.31483,2.17805 -0.94446,3.83565 -1.19503,3.2253 -1.79255,5.99442 -1.79254,8.30737 -10e-6,2.10737 0.48828,3.16105 1.46487,3.16104 1.24642,10e-6 2.83336,-1.0601 4.76084,-3.18031 1.92745,-2.12021 3.57864,-5.07565 4.95358,-8.86634 0.53967,-1.51625 0.97656,-2.49926 1.31067,-2.94902 0.34693,-0.46257 0.80952,-0.69387 1.38778,-0.69388 0.87376,1e-5 1.31065,0.57825 1.31067,1.73471 -2e-5,0.14137 -0.12209,0.61038 -0.36621,1.40705 -0.77101,2.81411 -1.1565,5.47401 -1.15648,7.9797 -2e-5,3.00685 0.49469,4.95359 1.48414,5.84022 0.51397,0.47544 0.77097,0.86093 0.77099,1.15648 -2e-5,0.35979 -0.26344,0.68746 -0.79026,0.983 -0.51401,0.29555 -0.98303,0.44332 -1.40705,0.44332 -0.8995,0 -1.62551,-0.66819 -2.17803,-2.00456 -0.55256,-1.33638 -0.82883,-3.30881 -0.82881,-5.91732 l 0,-0.63606 c -2e-5,-0.20559 0.006,-0.41761 0.0193,-0.63606"
         style="font-variant:normal;font-stretch:normal;font-family:Segoe Print;-inkscape-font-specification:Segoe Print;fill:#ffffff"
         id="path3016" />
      <path
         d="m 545.9169,739.20734 c 0.12849,-0.23128 0.28269,-0.55253 0.46259,-0.96373 0.87378,-2.00455 1.67689,-3.57222 2.40933,-4.70301 0.73243,-1.14361 1.53554,-2.23584 2.40933,-3.27669 0.88662,-1.04081 1.68973,-1.83107 2.40933,-2.37078 0.73242,-0.53967 1.39419,-0.91231 1.98529,-1.11793 0.59107,-0.21842 1.16289,-0.32765 1.71544,-0.32767 1.11791,2e-5 2.03025,0.34054 2.737,1.02156 0.70672,0.6682 1.06009,1.45204 1.06011,2.3515 -2e-5,0.39836 -0.12852,0.75816 -0.38549,1.07938 -0.24417,0.32126 -0.62324,0.48189 -1.13721,0.48187 -0.53971,2e-5 -1.03442,-0.2377 -1.48415,-0.71316 -0.46261,-0.47543 -0.94447,-0.71315 -1.44559,-0.71316 -1.33639,10e-6 -3.18676,1.61908 -5.5511,4.85721 -2.36436,3.23814 -3.80354,6.80395 -4.31752,10.69742 -0.1285,1.00228 -0.37265,1.66404 -0.73243,1.98529 -0.3598,0.32124 -0.86737,0.48186 -1.5227,0.48186 -0.62964,0 -1.08581,-0.46901 -1.3685,-1.40704 -0.2827,-0.93804 -0.42405,-2.51855 -0.42404,-4.74157 -10e-6,-0.60393 0.0321,-1.93388 0.0964,-3.98985 0.0771,-2.42859 0.23129,-4.38818 0.46259,-5.87876 0.0385,-0.24413 0.1028,-0.81594 0.19275,-1.71544 0.0899,-0.98942 0.19917,-1.67688 0.32767,-2.06239 0.14134,-0.38547 0.41761,-0.74527 0.82881,-1.07938 0.42403,-0.33407 0.8802,-0.50112 1.3685,-0.50114 0.47543,2e-5 0.8288,0.15422 1.0601,0.46259 0.24414,0.29556 0.36621,0.61681 0.36622,0.96373 -1e-5,0.50116 -0.12851,1.2079 -0.38549,2.12021 -0.29556,1.01515 -0.46903,1.71546 -0.52042,2.10094 -0.0386,0.4369 -0.10923,0.89307 -0.21202,1.3685 -0.1285,0.55255 -0.257,2.00457 -0.38549,4.35607 l -0.0193,0.71316 0,0.52041"
         style="font-variant:normal;font-stretch:normal;font-family:Segoe Print;-inkscape-font-specification:Segoe Print;fill:#ffffff"
         id="path3018" />
      <path
         d="m 591.77126,738.87967 c -1.72188,2.76271 -3.54655,4.89577 -5.474,6.39918 -1.92747,1.49058 -3.70074,2.23586 -5.3198,2.23586 -1.24643,0 -2.23586,-0.47544 -2.96829,-1.42632 -0.71959,-0.96373 -1.07938,-2.24228 -1.07938,-3.83565 0,-3.25098 1.31709,-6.58549 3.9513,-10.00354 2.64704,-3.41802 5.49968,-5.12704 8.55794,-5.12706 1.33636,2e-5 2.57636,0.57184 3.72,1.71545 l 2.69845,-12.60562 c 0.19273,-0.8609 0.5461,-1.43914 1.06011,-1.73471 0.52682,-0.29552 0.93801,-0.44329 1.23357,-0.44332 0.89946,3e-5 1.34921,0.79672 1.34923,2.39005 -2e-5,0.28273 -0.29557,1.33641 -0.88663,3.16105 -0.93806,2.82697 -1.83112,6.30282 -2.67918,10.42758 -0.83525,4.11193 -1.25287,7.41432 -1.25285,9.90716 -2e-5,2.56996 0.55894,3.85493 1.67689,3.85493 0.71957,0 1.46485,-0.23772 2.23586,-0.71316 0.32122,-0.2313 0.62319,-0.34694 0.90591,-0.34695 0.41117,10e-6 0.61676,0.26985 0.61679,0.80954 -3e-5,0.65534 -0.57827,1.41347 -1.73472,2.2744 -1.14365,0.86094 -2.3194,1.29141 -3.52726,1.29141 -2.12023,0 -3.18033,-2.04311 -3.18031,-6.12934 -2e-5,-0.69388 0.0321,-1.39419 0.0964,-2.10094 m -2.52498,-9.02053 c -2.08167,2e-5 -4.14406,1.41349 -6.18716,4.24042 -2.04312,2.81411 -3.06467,5.41618 -3.06467,7.80623 0,1.60623 0.53326,2.40934 1.5998,2.40933 1.00227,10e-6 2.21657,-0.52683 3.64291,-1.58052 1.43916,-1.05367 2.91688,-2.73056 4.43316,-5.03068 1.51626,-2.31294 2.27439,-4.04766 2.27441,-5.20415 -2e-5,-0.56538 -0.26344,-1.14361 -0.79026,-1.73472 -0.514,-0.60392 -1.15007,-0.90589 -1.90819,-0.90591"
         style="font-variant:normal;font-stretch:normal;font-family:Segoe Print;-inkscape-font-specification:Segoe Print;fill:#ffffff"
         id="path3020" />
      <path
         d="m 610.29419,721.05063 c -0.26985,3e-5 -0.47545,-0.28909 -0.61679,-0.86736 -0.0514,-0.17987 -0.12208,-0.37904 -0.21202,-0.59751 -0.34695,-0.83521 -0.52042,-1.56122 -0.52041,-2.17803 -10e-6,-0.51396 0.30196,-1.03438 0.9059,-1.56125 0.61678,-0.53966 1.29782,-0.8095 2.04312,-0.80953 0.37263,3e-5 0.79024,0.1478 1.25285,0.44331 0.46258,0.28273 0.69387,0.559 0.69388,0.82881 -1e-5,0.42407 -0.16063,1.14366 -0.48186,2.15876 -0.30841,1.01516 -0.80955,1.70262 -1.50342,2.06239 -0.68105,0.34697 -1.20147,0.52044 -1.56125,0.52041 m -2.52498,21.52978 c 0,0.97658 0.13492,2.07523 0.40477,3.29596 0.0514,0.23129 0.0771,0.42404 0.0771,0.57824 -10e-6,0.23129 -0.21203,0.52684 -0.63606,0.88663 -0.42405,0.37264 -0.87379,0.55896 -1.34923,0.55897 -1.24643,-10e-6 -1.86964,-1.14363 -1.86964,-3.43089 0,-2.36435 0.48829,-6.10363 1.46487,-11.21784 0.33409,-1.7861 0.50114,-2.88475 0.50114,-3.29596 0,-0.80952 0.14777,-1.49698 0.44332,-2.06239 0.29554,-0.57822 0.71316,-0.86734 1.25285,-0.86736 0.65533,2e-5 1.16932,0.16064 1.54197,0.48187 0.38549,0.30841 0.57823,0.65535 0.57824,1.04083 -10e-6,0.38551 -0.09,0.89307 -0.26984,1.52269 -0.96374,3.39235 -1.56126,5.82096 -1.79254,7.28582 -0.23131,1.46488 -0.34695,3.20602 -0.34695,5.22343"
         style="font-variant:normal;font-stretch:normal;font-family:Segoe Print;-inkscape-font-specification:Segoe Print;fill:#ffffff"
         id="path3022" />
      <path
         d="m 629.12551,739.88196 c -0.15421,-0.11565 -0.58468,0.24415 -1.2914,1.07938 -1.16934,1.37492 -2.66634,2.59565 -4.49099,3.66218 -1.81183,1.06653 -3.49514,1.59979 -5.04996,1.59979 -1.15648,0 -2.06239,-0.35979 -2.71772,-1.07938 -0.65534,-0.73243 -0.98301,-1.74114 -0.98301,-3.02612 0,-1.9917 0.75171,-4.20828 2.25513,-6.64975 1.50342,-2.45429 3.60435,-4.59377 6.30281,-6.41845 2.71129,-1.82465 5.08207,-2.73698 7.11234,-2.737 1.06652,2e-5 2.00455,0.30841 2.8141,0.92518 0.19273,0.15422 0.35977,0.28272 0.50114,0.3855 0.23128,0.16706 0.44972,0.50758 0.65534,1.02155 0.20557,0.50116 0.30837,0.90593 0.30839,1.2143 -2e-5,0.19277 -0.0707,0.48831 -0.21202,0.88664 -0.78385,2.13307 -1.31712,3.89991 -1.59979,5.30052 -0.28272,1.40064 -0.59111,3.75856 -0.92519,7.0738 -0.30841,2.98114 -0.6425,5.27482 -1.00228,6.88104 -0.35981,1.60622 -1.00872,3.16104 -1.94674,4.66446 -0.93804,1.50342 -2.0624,2.62777 -3.37306,3.37307 -1.31068,0.75812 -2.65991,1.13719 -4.04767,1.1372 -2.40291,-1e-5 -4.77369,-0.82882 -7.11234,-2.48643 -2.33866,-1.65763 -3.50799,-2.98758 -3.50799,-3.98985 0,-0.62964 0.23773,-0.94446 0.71316,-0.94446 0.2313,0 0.91876,0.37907 2.06239,1.13721 3.01969,2.0174 5.73741,3.02611 8.15317,3.02612 2.10735,-10e-6 3.70715,-1.12437 4.79939,-3.37307 1.10506,-2.24871 1.85677,-5.60892 2.25513,-10.08063 0.0899,-1.01513 0.19916,-1.87606 0.32767,-2.5828 m -0.0385,-10.58178 c -1.09224,2e-5 -2.46074,0.56541 -4.1055,1.69617 -1.63193,1.13079 -3.21887,2.78841 -4.76083,4.97285 -1.54198,2.18447 -2.31297,4.01556 -2.31296,5.49328 -1e-5,0.50114 0.15419,0.89948 0.46259,1.19502 0.32124,0.2827 0.67461,0.42405 1.06011,0.42405 1.14362,0 2.63419,-0.59109 4.47171,-1.77327 1.85036,-1.18217 3.4373,-2.82051 4.76084,-4.91503 1.33636,-2.10735 2.00454,-3.75854 2.00456,-4.95359 -2e-5,-1.4263 -0.52686,-2.13946 -1.58052,-2.13948"
         style="font-variant:normal;font-stretch:normal;font-family:Segoe Print;-inkscape-font-specification:Segoe Print;fill:#ffffff"
         id="path3024" />
      <path
         d="m 644.37177,721.05063 c -0.26986,3e-5 -0.47545,-0.28909 -0.61679,-0.86736 -0.0514,-0.17987 -0.12208,-0.37904 -0.21202,-0.59751 -0.34695,-0.83521 -0.52043,-1.56122 -0.52042,-2.17803 -1e-5,-0.51396 0.30196,-1.03438 0.90591,-1.56125 0.61678,-0.53966 1.29782,-0.8095 2.04311,-0.80953 0.37263,3e-5 0.79025,0.1478 1.25285,0.44331 0.46258,0.28273 0.69388,0.559 0.69389,0.82881 -1e-5,0.42407 -0.16063,1.14366 -0.48187,2.15876 -0.3084,1.01516 -0.80954,1.70262 -1.50342,2.06239 -0.68105,0.34697 -1.20146,0.52044 -1.56124,0.52041 m -2.52498,21.52978 c -1e-5,0.97658 0.13491,2.07523 0.40477,3.29596 0.0514,0.23129 0.0771,0.42404 0.0771,0.57824 0,0.23129 -0.21202,0.52684 -0.63606,0.88663 -0.42405,0.37264 -0.87379,0.55896 -1.34922,0.55897 -1.24643,-10e-6 -1.86965,-1.14363 -1.86964,-3.43089 -1e-5,-2.36435 0.48828,-6.10363 1.46487,-11.21784 0.33409,-1.7861 0.50113,-2.88475 0.50114,-3.29596 -10e-6,-0.80952 0.14777,-1.49698 0.44332,-2.06239 0.29554,-0.57822 0.71315,-0.86734 1.25285,-0.86736 0.65533,2e-5 1.16932,0.16064 1.54197,0.48187 0.38548,0.30841 0.57823,0.65535 0.57824,1.04083 -10e-6,0.38551 -0.09,0.89307 -0.26985,1.52269 -0.96374,3.39235 -1.56125,5.82096 -1.79254,7.28582 -0.2313,1.46488 -0.34695,3.20602 -0.34694,5.22343"
         style="font-variant:normal;font-stretch:normal;font-family:Segoe Print;-inkscape-font-specification:Segoe Print;fill:#ffffff"
         id="path3026" />
      <path
         d="m 657.42069,727.41126 c 1.32352,-0.10277 2.56994,-0.22485 3.73928,-0.36621 1.15647,-0.12848 2.1202,-0.19273 2.8912,-0.19275 0.97656,2e-5 1.59335,0.09 1.85036,0.26984 0.25698,0.17992 0.38548,0.49474 0.3855,0.94446 -2e-5,1.04085 -0.72603,1.60624 -2.17804,1.69617 -1.86323,0.11567 -3.57867,0.27629 -5.14633,0.48187 -1.56768,0.20561 -2.41576,0.37908 -2.54425,0.52041 -0.11565,0.12852 -0.50115,1.65763 -1.15648,4.58737 -0.65534,2.9169 -0.98301,4.81224 -0.983,5.68601 -10e-6,1.41348 0.18631,2.35794 0.55896,2.83338 0.37264,0.46259 0.9316,0.69389 1.6769,0.69388 1.10506,10e-6 2.64061,-0.8288 4.60663,-2.48643 0.75813,-0.68103 1.34279,-1.02155 1.754,-1.02155 0.55252,0 0.82879,0.29555 0.82881,0.88663 -2e-5,0.92519 -0.89308,2.12664 -2.67918,3.60436 -1.77328,1.46487 -3.59152,2.19731 -5.45472,2.19731 -3.10965,0 -4.66447,-1.83109 -4.66446,-5.49327 -1e-5,-1.32352 0.32124,-3.37306 0.96373,-6.14861 0.62963,-2.76269 0.94445,-4.42031 0.94446,-4.97286 -1e-5,-0.19273 -0.15421,-0.2891 -0.4626,-0.28912 l -2.00456,0.17347 c -1.64477,2e-5 -2.46715,-0.65532 -2.46715,-1.96601 0,-0.74527 0.37906,-1.11791 1.1372,-1.11793 l 3.97058,0 c 0.26984,2e-5 0.50756,-0.12205 0.71316,-0.36622 0.20559,-0.24412 0.50756,-1.06008 0.90591,-2.44788 0.39833,-1.4006 0.7517,-2.78195 1.0601,-4.14405 0.30839,-1.34919 0.91232,-2.0238 1.81182,-2.02383 0.55253,3e-5 0.98299,0.19277 1.2914,0.57824 0.30838,0.38552 0.46258,0.74531 0.46259,1.07938 -1e-5,0.17992 -0.23131,1.09868 -0.69389,2.75627 l -1.11793,4.04767"
         style="font-variant:normal;font-stretch:normal;font-family:Segoe Print;-inkscape-font-specification:Segoe Print;fill:#ffffff"
         id="path3028" />
      <path
         d="m 681.07065,739.84341 c -1.79898,2.41576 -3.57867,4.22757 -5.33907,5.43544 -1.76043,1.20788 -3.37307,1.81182 -4.83794,1.81182 -0.98943,0 -1.84394,-0.41762 -2.56352,-1.25285 -0.71959,-0.83523 -1.07938,-1.90819 -1.07938,-3.21887 0,-3.37947 1.50984,-7.01595 4.52954,-10.90944 3.01968,-3.90631 6.0201,-5.85947 9.00125,-5.85949 1.07937,2e-5 1.88248,0.61681 2.40933,1.85036 0.16703,0.41121 0.43045,0.61681 0.79026,0.61679 1.02797,2e-5 1.54196,0.39836 1.54198,1.19503 -2e-5,0.39836 -0.0643,0.94447 -0.19275,1.63834 -0.69391,3.7907 -1.04085,6.46344 -1.04083,8.01825 -2e-5,3.10965 0.59107,4.97286 1.77327,5.58965 0.56536,0.3084 0.84806,0.68746 0.84808,1.1372 -2e-5,0.39835 -0.27629,0.79669 -0.82881,1.19503 -0.55256,0.41119 -1.08582,0.61679 -1.59979,0.61679 -0.98945,0 -1.80541,-0.68104 -2.44788,-2.04311 -0.64251,-1.36207 -0.96375,-3.30239 -0.96374,-5.82094 m -1.17575,-10.85163 c -1.69618,2e-5 -3.66862,1.59339 -5.91731,4.78012 -2.24872,3.1739 -3.37307,5.80809 -3.37306,7.9026 -10e-6,1.47772 0.48828,2.21658 1.46487,2.21658 1.41346,0 3.37305,-1.42632 5.87876,-4.27897 2.50569,-2.85264 3.75854,-5.47398 3.75856,-7.86405 -2e-5,-1.8375 -0.60396,-2.75626 -1.81182,-2.75628"
         style="font-variant:normal;font-stretch:normal;font-family:Segoe Print;-inkscape-font-specification:Segoe Print;fill:#ffffff"
         id="path3030" />
      <path
         d="m 698.03234,714.22741 c 0.92517,3e-5 1.38776,0.59112 1.38777,1.77327 -10e-6,1.05371 -0.55897,3.55941 -1.67689,7.51711 -0.70675,2.49287 -1.25286,5.24272 -1.63835,8.24954 -0.3855,3.00686 -0.57824,5.36479 -0.57824,7.0738 0,2.12021 0.13492,4.22757 0.40477,6.32208 0.0514,0.39834 0.0771,0.68746 0.0771,0.86736 -10e-6,0.64248 -0.21845,1.19502 -0.65534,1.65761 -0.4369,0.46259 -0.89949,0.69389 -1.38777,0.69389 -0.68104,0 -1.15649,-0.42404 -1.42633,-1.27212 -0.25699,-0.84809 -0.38549,-2.21659 -0.38549,-4.1055 0,-4.30466 0.51399,-9.63731 1.54197,-15.99795 1.04083,-6.36061 1.86321,-10.08061 2.46716,-11.16002 0.61678,-1.07935 1.23999,-1.61904 1.86964,-1.61907"
         style="font-variant:normal;font-stretch:normal;font-family:Segoe Print;-inkscape-font-specification:Segoe Print;fill:#ffffff"
         id="path3032" />
      <path
         d="m 728.12006,742.44548 c -10e-6,-0.83523 -1.02799,-1.78611 -3.08394,-2.85264 -2.60851,-1.33637 -4.37535,-2.4029 -5.30053,-3.19959 -0.91234,-0.80953 -1.3685,-1.70901 -1.3685,-2.69845 0,-2.55709 1.27855,-4.6773 3.83565,-6.36063 2.56995,-1.6833 4.66446,-2.52496 6.28354,-2.52498 1.04081,2e-5 1.79252,0.17992 2.25513,0.53969 0.47542,0.35981 0.71315,0.98303 0.71316,1.86964 -10e-6,0.39836 -0.17349,0.73888 -0.52041,1.02155 -0.33411,0.28272 -0.59753,0.42406 -0.79026,0.42405 -0.14137,10e-6 -0.41764,-0.0964 -0.82881,-0.28912 -0.41121,-0.17988 -0.68105,-0.26983 -0.80954,-0.26985 -0.6425,2e-5 -1.94675,0.46904 -3.91275,1.40705 -1.96602,0.93805 -2.94903,1.99815 -2.94902,3.18032 -10e-6,0.7196 0.34694,1.37493 1.04083,1.96601 0.69388,0.57825 1.9403,1.29141 3.73928,2.13948 1.45201,0.6939 2.60849,1.43919 3.46943,2.23586 0.87377,0.78384 1.31067,1.70903 1.31068,2.77555 -10e-6,1.96602 -1.35566,3.50799 -4.06695,4.62591 -2.71131,1.10508 -5.30053,1.65762 -7.76768,1.65762 -2.08166,0 -3.12249,-0.70674 -3.12249,-2.12021 0,-0.48829 0.2313,-0.84808 0.69389,-1.07938 0.47544,-0.23129 0.95088,-0.34694 1.42632,-0.34694 0.19274,0 0.55896,0.0643 1.09866,0.19274 0.52683,0.1285 0.87377,0.19275 1.04083,0.19275 1.42631,0 2.95543,-0.23772 4.58736,-0.71316 1.63191,-0.47544 2.64061,-1.06653 3.02612,-1.77327"
         style="font-variant:normal;font-stretch:normal;font-family:Segoe Print;-inkscape-font-specification:Segoe Print;fill:#ffffff"
         id="path3034" />
      <path
         d="m 741.36173,721.05063 c -0.26986,3e-5 -0.47545,-0.28909 -0.61679,-0.86736 -0.0514,-0.17987 -0.12208,-0.37904 -0.21202,-0.59751 -0.34695,-0.83521 -0.52043,-1.56122 -0.52042,-2.17803 -1e-5,-0.51396 0.30196,-1.03438 0.90591,-1.56125 0.61678,-0.53966 1.29782,-0.8095 2.04311,-0.80953 0.37263,3e-5 0.79025,0.1478 1.25285,0.44331 0.46258,0.28273 0.69388,0.559 0.69389,0.82881 -1e-5,0.42407 -0.16063,1.14366 -0.48187,2.15876 -0.3084,1.01516 -0.80954,1.70262 -1.50342,2.06239 -0.68105,0.34697 -1.20146,0.52044 -1.56124,0.52041 m -2.52498,21.52978 c -1e-5,0.97658 0.13491,2.07523 0.40477,3.29596 0.0514,0.23129 0.0771,0.42404 0.0771,0.57824 0,0.23129 -0.21202,0.52684 -0.63606,0.88663 -0.42405,0.37264 -0.87379,0.55896 -1.34922,0.55897 -1.24643,-10e-6 -1.86965,-1.14363 -1.86964,-3.43089 -1e-5,-2.36435 0.48828,-6.10363 1.46487,-11.21784 0.33409,-1.7861 0.50113,-2.88475 0.50114,-3.29596 -10e-6,-0.80952 0.14777,-1.49698 0.44332,-2.06239 0.29553,-0.57822 0.71315,-0.86734 1.25285,-0.86736 0.65533,2e-5 1.16932,0.16064 1.54197,0.48187 0.38548,0.30841 0.57823,0.65535 0.57824,1.04083 -10e-6,0.38551 -0.09,0.89307 -0.26985,1.52269 -0.96374,3.39235 -1.56125,5.82096 -1.79254,7.28582 -0.2313,1.46488 -0.34695,3.20602 -0.34694,5.22343"
         style="font-variant:normal;font-stretch:normal;font-family:Segoe Print;-inkscape-font-specification:Segoe Print;fill:#ffffff"
         id="path3036" />
      <path
         d="m 760.19305,739.88196 c -0.15422,-0.11565 -0.58468,0.24415 -1.29141,1.07938 -1.16934,1.37492 -2.66633,2.59565 -4.49099,3.66218 -1.81182,1.06653 -3.49514,1.59979 -5.04995,1.59979 -1.15648,0 -2.06239,-0.35979 -2.71773,-1.07938 -0.65534,-0.73243 -0.983,-1.74114 -0.983,-3.02612 0,-1.9917 0.75171,-4.20828 2.25513,-6.64975 1.50342,-2.45429 3.60435,-4.59377 6.30281,-6.41845 2.71128,-1.82465 5.08206,-2.73698 7.11234,-2.737 1.06651,2e-5 2.00454,0.30841 2.8141,0.92518 0.19272,0.15422 0.35977,0.28272 0.50114,0.3855 0.23127,0.16706 0.44972,0.50758 0.65533,1.02155 0.20558,0.50116 0.30838,0.90593 0.3084,1.2143 -2e-5,0.19277 -0.0707,0.48831 -0.21202,0.88664 -0.78386,2.13307 -1.31712,3.89991 -1.5998,5.30052 -0.28271,1.40064 -0.59111,3.75856 -0.92518,7.0738 -0.30841,2.98114 -0.64251,5.27482 -1.00228,6.88104 -0.35981,1.60622 -1.00872,3.16104 -1.94674,4.66446 -0.93805,1.50342 -2.0624,2.62777 -3.37306,3.37307 -1.31069,0.75812 -2.65991,1.13719 -4.04768,1.1372 -2.40291,-1e-5 -4.77369,-0.82882 -7.11234,-2.48643 -2.33865,-1.65763 -3.50798,-2.98758 -3.50798,-3.98985 0,-0.62964 0.23772,-0.94446 0.71316,-0.94446 0.2313,0 0.91876,0.37907 2.06239,1.13721 3.01969,2.0174 5.73741,3.02611 8.15317,3.02612 2.10735,-10e-6 3.70714,-1.12437 4.79938,-3.37307 1.10507,-2.24871 1.85678,-5.60892 2.25514,-10.08063 0.0899,-1.01513 0.19915,-1.87606 0.32767,-2.5828 m -0.0385,-10.58178 c -1.09225,2e-5 -2.46075,0.56541 -4.1055,1.69617 -1.63193,1.13079 -3.21888,2.78841 -4.76084,4.97285 -1.54197,2.18447 -2.31296,4.01556 -2.31295,5.49328 -10e-6,0.50114 0.15419,0.89948 0.46259,1.19502 0.32123,0.2827 0.6746,0.42405 1.0601,0.42405 1.14362,0 2.63419,-0.59109 4.47172,-1.77327 1.85035,-1.18217 3.43729,-2.82051 4.76083,-4.91503 1.33636,-2.10735 2.00455,-3.75854 2.00457,-4.95359 -2e-5,-1.4263 -0.52686,-2.13946 -1.58052,-2.13948"
         style="font-variant:normal;font-stretch:normal;font-family:Segoe Print;-inkscape-font-specification:Segoe Print;fill:#ffffff"
         id="path3038" />
      <path
         d="m 782.3589,732.03718 c -0.66821,10e-6 -1.40064,0.4369 -2.19731,1.31067 -0.78385,0.8738 -1.9853,2.83339 -3.60436,5.87877 -2.13307,4.08622 -3.51442,6.41203 -4.14405,6.97742 -0.61679,0.56539 -1.13078,0.84808 -1.54197,0.84808 -1.51627,0 -2.27441,-0.73243 -2.27441,-2.19731 0,-0.61678 0.1028,-1.49057 0.3084,-2.62135 0.70673,-3.88062 1.0601,-7.97326 1.0601,-12.27794 0,-0.48828 0.2056,-1.02797 0.61679,-1.61907 0.42404,-0.60392 0.82238,-0.90589 1.19503,-0.90591 0.66818,2e-5 1.14362,0.20561 1.42632,0.61679 0.28269,0.41121 0.42404,1.24002 0.42405,2.48643 -10e-6,1.29784 -0.3855,3.97058 -1.15648,8.01825 -0.257,1.33638 -0.3855,2.18446 -0.3855,2.54425 0,0.2056 0.0514,0.3084 0.1542,0.30839 0.19274,1e-5 1.0858,-1.53554 2.67918,-4.60664 1.60621,-3.12247 3.01325,-5.31978 4.22114,-6.59192 1.20787,-1.27211 2.53781,-1.90817 3.98985,-1.90819 1.15646,2e-5 2.09449,0.52686 2.8141,1.58052 0.73242,1.05369 1.26568,2.97473 1.59979,5.76312 0.35978,3.17389 0.68102,5.15275 0.96374,5.93658 0.29552,0.77099 0.75811,1.15649 1.38777,1.15648 0.39832,10e-6 0.89946,-0.14134 1.50342,-0.42404 0.10278,-0.0514 0.17987,-0.0771 0.2313,-0.0771 0.55251,10e-6 0.82878,0.32125 0.82881,0.96373 -3e-5,0.5654 -0.3791,1.16933 -1.13721,1.81182 -0.75816,0.62964 -1.67049,0.94446 -2.73699,0.94446 -1.09226,0 -1.94034,-0.43047 -2.54426,-1.2914 -0.5911,-0.87378 -1.06012,-3.19316 -1.40705,-6.95815 -0.35981,-3.77781 -1.11794,-5.66673 -2.2744,-5.66674"
         style="font-variant:normal;font-stretch:normal;font-family:Segoe Print;-inkscape-font-specification:Segoe Print;fill:#ffffff"
         id="path3040" />
      <path
         d="m 808.43748,739.84341 c -1.79898,2.41576 -3.57867,4.22757 -5.33908,5.43544 -1.76043,1.20788 -3.37307,1.81182 -4.83793,1.81182 -0.98944,0 -1.84395,-0.41762 -2.56353,-1.25285 -0.71959,-0.83523 -1.07938,-1.90819 -1.07938,-3.21887 0,-3.37947 1.50984,-7.01595 4.52954,-10.90944 3.01968,-3.90631 6.0201,-5.85947 9.00126,-5.85949 1.07936,2e-5 1.88247,0.61681 2.40933,1.85036 0.16702,0.41121 0.43044,0.61681 0.79026,0.61679 1.02796,2e-5 1.54195,0.39836 1.54197,1.19503 -2e-5,0.39836 -0.0643,0.94447 -0.19275,1.63834 -0.69391,3.7907 -1.04085,6.46344 -1.04083,8.01825 -2e-5,3.10965 0.59107,4.97286 1.77327,5.58965 0.56537,0.3084 0.84806,0.68746 0.84808,1.1372 -2e-5,0.39835 -0.27629,0.79669 -0.82881,1.19503 -0.55256,0.41119 -1.08582,0.61679 -1.59979,0.61679 -0.98945,0 -1.80541,-0.68104 -2.44788,-2.04311 -0.64251,-1.36207 -0.96375,-3.30239 -0.96373,-5.82094 m -1.17576,-10.85163 c -1.69618,2e-5 -3.66861,1.59339 -5.91731,4.78012 -2.24872,3.1739 -3.37307,5.80809 -3.37306,7.9026 -10e-6,1.47772 0.48828,2.21658 1.46487,2.21658 1.41346,0 3.37305,-1.42632 5.87876,-4.27897 2.50569,-2.85264 3.75854,-5.47398 3.75856,-7.86405 -2e-5,-1.8375 -0.60396,-2.75626 -1.81182,-2.75628"
         style="font-variant:normal;font-stretch:normal;font-family:Segoe Print;-inkscape-font-specification:Segoe Print;fill:#ffffff"
         id="path3042" />
      <path
         d="m 832.2802,739.88196 c -0.15421,-0.11565 -0.58468,0.24415 -1.2914,1.07938 -1.16934,1.37492 -2.66633,2.59565 -4.49099,3.66218 -1.81182,1.06653 -3.49514,1.59979 -5.04995,1.59979 -1.15649,0 -2.06239,-0.35979 -2.71773,-1.07938 -0.65534,-0.73243 -0.98301,-1.74114 -0.983,-3.02612 -10e-6,-1.9917 0.7517,-4.20828 2.25513,-6.64975 1.50341,-2.45429 3.60435,-4.59377 6.30281,-6.41845 2.71128,-1.82465 5.08206,-2.73698 7.11234,-2.737 1.06651,2e-5 2.00454,0.30841 2.81409,0.92518 0.19273,0.15422 0.35978,0.28272 0.50114,0.3855 0.23128,0.16706 0.44973,0.50758 0.65534,1.02155 0.20558,0.50116 0.30838,0.90593 0.3084,1.2143 -2e-5,0.19277 -0.0707,0.48831 -0.21202,0.88664 -0.78386,2.13307 -1.31712,3.89991 -1.5998,5.30052 -0.28271,1.40064 -0.59111,3.75856 -0.92518,7.0738 -0.30841,2.98114 -0.64251,5.27482 -1.00228,6.88104 -0.35981,1.60622 -1.00873,3.16104 -1.94674,4.66446 -0.93805,1.50342 -2.0624,2.62777 -3.37306,3.37307 -1.31069,0.75812 -2.65991,1.13719 -4.04768,1.1372 -2.40291,-1e-5 -4.77369,-0.82882 -7.11234,-2.48643 -2.33865,-1.65763 -3.50798,-2.98758 -3.50798,-3.98985 0,-0.62964 0.23772,-0.94446 0.71316,-0.94446 0.23129,0 0.91876,0.37907 2.06238,1.13721 3.01969,2.0174 5.73742,3.02611 8.15318,3.02612 2.10735,-10e-6 3.70714,-1.12437 4.79938,-3.37307 1.10507,-2.24871 1.85678,-5.60892 2.25513,-10.08063 0.0899,-1.01513 0.19916,-1.87606 0.32767,-2.5828 m -0.0385,-10.58178 c -1.09224,2e-5 -2.46074,0.56541 -4.10549,1.69617 -1.63193,1.13079 -3.21888,2.78841 -4.76084,4.97285 -1.54198,2.18447 -2.31296,4.01556 -2.31296,5.49328 0,0.50114 0.1542,0.89948 0.46259,1.19502 0.32124,0.2827 0.67461,0.42405 1.06011,0.42405 1.14362,0 2.63419,-0.59109 4.47172,-1.77327 1.85035,-1.18217 3.43729,-2.82051 4.76083,-4.91503 1.33636,-2.10735 2.00455,-3.75854 2.00456,-4.95359 -10e-6,-1.4263 -0.52685,-2.13946 -1.58052,-2.13948"
         style="font-variant:normal;font-stretch:normal;font-family:Segoe Print;-inkscape-font-specification:Segoe Print;fill:#ffffff"
         id="path3044" />
      <path
         d="m 857.81912,740.32527 c -2e-5,1.31068 -1.16292,2.8912 -3.48871,4.74156 -2.31297,1.85037 -4.70303,2.77555 -7.17017,2.77555 -2.06882,0 -3.66861,-0.61036 -4.79938,-1.83109 -1.11794,-1.22072 -1.6769,-2.92332 -1.6769,-5.10778 0,-3.67502 1.24,-7.17015 3.72001,-10.4854 2.47999,-3.31522 5.19129,-4.97284 8.1339,-4.97286 0.96371,2e-5 1.74755,0.31484 2.3515,0.94446 0.61677,0.62966 0.92517,1.38779 0.92518,2.27441 -1e-5,1.97887 -0.97017,3.87421 -2.91047,5.68601 -1.94032,1.81183 -4.53597,3.59152 -7.78695,5.33908 -0.66819,0.34695 -1.00229,0.79669 -1.00228,1.34922 -1e-5,1.06654 0.30839,1.92105 0.92518,2.56353 0.61678,0.64249 1.52911,0.96374 2.737,0.96373 2.76269,10e-6 5.58321,-1.52911 8.46157,-4.58736 0.42402,-0.42404 0.74526,-0.63606 0.96373,-0.63606 0.41117,0 0.61677,0.32767 0.61679,0.983 m -13.39588,-3.00684 c 5.44829,-3.23813 8.17244,-5.8402 8.17245,-7.80623 -10e-6,-0.77097 -0.34696,-1.15646 -1.04083,-1.15648 -1.18219,2e-5 -2.51856,0.86738 -4.00913,2.60208 -1.47773,1.73473 -2.51855,3.85494 -3.12249,6.36063"
         style="font-variant:normal;font-stretch:normal;font-family:Segoe Print;-inkscape-font-specification:Segoe Print;fill:#ffffff"
         id="path3046" />
      <path
         d="m 894.1325,740.32527 c -2e-5,1.31068 -1.16292,2.8912 -3.48871,4.74156 -2.31297,1.85037 -4.70302,2.77555 -7.17016,2.77555 -2.06882,0 -3.66861,-0.61036 -4.79939,-1.83109 -1.11793,-1.22072 -1.67689,-2.92332 -1.67689,-5.10778 0,-3.67502 1.24,-7.17015 3.72,-10.4854 2.48,-3.31522 5.19129,-4.97284 8.1339,-4.97286 0.96372,2e-5 1.74755,0.31484 2.35151,0.94446 0.61677,0.62966 0.92516,1.38779 0.92518,2.27441 -2e-5,1.97887 -0.97017,3.87421 -2.91047,5.68601 -1.94033,1.81183 -4.53598,3.59152 -7.78696,5.33908 -0.66819,0.34695 -1.00228,0.79669 -1.00228,1.34922 0,1.06654 0.30839,1.92105 0.92519,2.56353 0.61678,0.64249 1.52911,0.96374 2.73699,0.96373 2.76269,10e-6 5.58321,-1.52911 8.46157,-4.58736 0.42403,-0.42404 0.74527,-0.63606 0.96373,-0.63606 0.41118,0 0.61677,0.32767 0.61679,0.983 m -13.39587,-3.00684 c 5.44828,-3.23813 8.17243,-5.8402 8.17244,-7.80623 -1e-5,-0.77097 -0.34695,-1.15646 -1.04083,-1.15648 -1.18219,2e-5 -2.51856,0.86738 -4.00912,2.60208 -1.47773,1.73473 -2.51856,3.85494 -3.12249,6.36063"
         style="font-variant:normal;font-stretch:normal;font-family:Segoe Print;-inkscape-font-specification:Segoe Print;fill:#ffffff"
         id="path3048" />
      <path
         d="m 911.13276,739.84341 c -1.79898,2.41576 -3.57867,4.22757 -5.33908,5.43544 -1.76042,1.20788 -3.37307,1.81182 -4.83793,1.81182 -0.98944,0 -1.84395,-0.41762 -2.56353,-1.25285 -0.71959,-0.83523 -1.07938,-1.90819 -1.07938,-3.21887 0,-3.37947 1.50984,-7.01595 4.52954,-10.90944 3.01969,-3.90631 6.0201,-5.85947 9.00126,-5.85949 1.07936,2e-5 1.88247,0.61681 2.40933,1.85036 0.16703,0.41121 0.43045,0.61681 0.79026,0.61679 1.02796,2e-5 1.54195,0.39836 1.54197,1.19503 -2e-5,0.39836 -0.0643,0.94447 -0.19275,1.63834 -0.6939,3.7907 -1.04085,6.46344 -1.04083,8.01825 -2e-5,3.10965 0.59107,4.97286 1.77327,5.58965 0.56537,0.3084 0.84806,0.68746 0.84808,1.1372 -2e-5,0.39835 -0.27629,0.79669 -0.82881,1.19503 -0.55256,0.41119 -1.08582,0.61679 -1.59979,0.61679 -0.98945,0 -1.80541,-0.68104 -2.44788,-2.04311 -0.6425,-1.36207 -0.96375,-3.30239 -0.96373,-5.82094 M 909.957,728.99178 c -1.69618,2e-5 -3.66861,1.59339 -5.91731,4.78012 -2.24871,3.1739 -3.37307,5.80809 -3.37306,7.9026 -1e-5,1.47772 0.48828,2.21658 1.46487,2.21658 1.41347,0 3.37305,-1.42632 5.87877,-4.27897 2.50568,-2.85264 3.75853,-5.47398 3.75855,-7.86405 -2e-5,-1.8375 -0.60395,-2.75626 -1.81182,-2.75628"
         style="font-variant:normal;font-stretch:normal;font-family:Segoe Print;-inkscape-font-specification:Segoe Print;fill:#ffffff"
         id="path3050" />
      <path
         d="m 931.04346,742.44548 c -10e-6,-0.83523 -1.02799,-1.78611 -3.08394,-2.85264 -2.60851,-1.33637 -4.37535,-2.4029 -5.30053,-3.19959 -0.91233,-0.80953 -1.3685,-1.70901 -1.3685,-2.69845 0,-2.55709 1.27855,-4.6773 3.83565,-6.36063 2.56995,-1.6833 4.66446,-2.52496 6.28354,-2.52498 1.04081,2e-5 1.79252,0.17992 2.25513,0.53969 0.47543,0.35981 0.71315,0.98303 0.71316,1.86964 -10e-6,0.39836 -0.17349,0.73888 -0.52041,1.02155 -0.33411,0.28272 -0.59753,0.42406 -0.79026,0.42405 -0.14137,10e-6 -0.41763,-0.0964 -0.82881,-0.28912 -0.41121,-0.17988 -0.68105,-0.26983 -0.80954,-0.26985 -0.6425,2e-5 -1.94675,0.46904 -3.91275,1.40705 -1.96602,0.93805 -2.94903,1.99815 -2.94902,3.18032 -10e-6,0.7196 0.34694,1.37493 1.04083,1.96601 0.69388,0.57825 1.94031,1.29141 3.73928,2.13948 1.45201,0.6939 2.60849,1.43919 3.46944,2.23586 0.87376,0.78384 1.31066,1.70903 1.31067,2.77555 -10e-6,1.96602 -1.35566,3.50799 -4.06695,4.62591 -2.71131,1.10508 -5.30053,1.65762 -7.76768,1.65762 -2.08166,0 -3.12249,-0.70674 -3.12249,-2.12021 0,-0.48829 0.2313,-0.84808 0.69389,-1.07938 0.47544,-0.23129 0.95088,-0.34694 1.42632,-0.34694 0.19275,0 0.55896,0.0643 1.09866,0.19274 0.52683,0.1285 0.87378,0.19275 1.04083,0.19275 1.42631,0 2.95543,-0.23772 4.58736,-0.71316 1.63191,-0.47544 2.64061,-1.06653 3.02612,-1.77327"
         style="font-variant:normal;font-stretch:normal;font-family:Segoe Print;-inkscape-font-specification:Segoe Print;fill:#ffffff"
         id="path3052" />
      <path
         d="m 952.32268,740.05543 c -2.36437,2.05596 -4.44603,3.55296 -6.24498,4.49099 -1.78613,0.92518 -3.15462,1.38777 -4.1055,1.38777 -1.27213,0 -2.24871,-0.52684 -2.92974,-1.58052 -0.6682,-1.06652 -1.00229,-2.30653 -1.00229,-3.72 0,-1.97886 0.39834,-4.42031 1.19503,-7.32437 0.80953,-2.91688 1.40705,-4.64517 1.79254,-5.18487 0.39834,-0.55252 1.02798,-0.82879 1.88892,-0.82881 0.35978,2e-5 0.65533,0.21204 0.88663,0.63606 0.23129,0.42406 0.34694,0.90593 0.34694,1.4456 0,0.32126 -0.14778,0.73888 -0.44331,1.25285 -0.6939,1.20789 -1.06011,1.87608 -1.09866,2.00456 -0.0257,0.12851 -0.26985,0.90592 -0.73243,2.33223 -0.4626,1.41349 -0.6939,2.74344 -0.69389,3.98985 -1e-5,0.4369 0.10279,1.11794 0.30839,2.04311 0.21844,0.92519 0.66176,1.38778 1.32995,1.38778 0.70673,0 1.57409,-0.21202 2.60208,-0.63606 1.04082,-0.43689 2.21015,-1.14363 3.50799,-2.12021 1.29781,-0.97658 2.17159,-1.76684 2.62135,-2.37079 0.44972,-0.60392 0.76454,-1.29139 0.94445,-2.06238 0.19273,-0.77097 0.32765,-2.44144 0.40477,-5.01141 0.0771,-2.56993 0.70029,-3.8549 1.86964,-3.85493 0.69387,3e-5 1.14361,0.18635 1.34923,0.55897 0.20557,0.35981 0.30837,1.0537 0.30839,2.08166 -2e-5,0.8481 -0.0579,1.90821 -0.17347,3.18032 -0.14137,1.60623 -0.23132,2.74986 -0.26985,3.43088 -0.17991,3.53369 -0.6425,7.08665 -1.38777,10.65888 -0.73246,3.55938 -1.80541,6.53409 -3.21887,8.92415 -1.41348,2.4029 -3.36022,3.60435 -5.84021,3.60436 -2.51856,-1e-5 -4.76084,-0.66177 -6.72685,-1.98529 -1.95317,-1.31068 -2.92975,-2.42218 -2.92975,-3.33451 0,-0.42405 0.0964,-0.84166 0.28912,-1.25285 0.2056,-0.4112 0.46259,-0.61679 0.77099,-0.61679 0.1542,0 0.32124,0.12207 0.50114,0.36622 1.68332,2.58279 4.33036,3.87419 7.94115,3.8742 1.8632,-10e-6 3.42445,-1.63835 4.68374,-4.91503 1.27211,-3.26384 1.97242,-6.3285 2.10093,-9.194 0.0257,-0.55254 0.0771,-1.10508 0.1542,-1.65762"
         style="font-variant:normal;font-stretch:normal;font-family:Segoe Print;-inkscape-font-specification:Segoe Print;fill:#ffffff"
         id="path3054" />
    </g>
  </g>
</svg>
